<?xml version="1.0" encoding="UTF-8" standalone="no"?>
<!DOCTYPE svg PUBLIC "-//W3C//DTD SVG 1.1//EN"
 "http://www.w3.org/Graphics/SVG/1.1/DTD/svg11.dtd">
<!-- Generated by graphviz version 2.43.0 (0)
 -->
<!-- Title: DPDA_Task2 Pages: 1 -->
<svg width="1494pt" height="691pt"
 viewBox="0.00 0.00 1494.48 691.02" xmlns="http://www.w3.org/2000/svg" xmlns:xlink="http://www.w3.org/1999/xlink">
<g id="graph0" class="graph" transform="scale(1 1) rotate(0) translate(4 687.02)">
<title>DPDA_Task2</title>
<polygon fill="white" stroke="transparent" points="-4,4 -4,-687.02 1490.48,-687.02 1490.48,4 -4,4"/>
<text text-anchor="middle" x="743.24" y="-669.42" font-family="Times,serif" font-size="12.00">ДПДА для языка &#160;L = { a^n c^m b^m c^i b^k | m&gt;0 ∧ (k=n ∨ (i=n ∧ n&gt;1)) }</text>
<!-- start -->
<g id="node1" class="node">
<title>start</title>
<ellipse fill="black" stroke="black" cx="1.8" cy="-505.02" rx="1.8" ry="1.8"/>
</g>
<!-- qA0 -->
<g id="node2" class="node">
<title>qA0</title>
<ellipse fill="none" stroke="black" cx="74.54" cy="-505.02" rx="33.88" ry="33.88"/>
<text text-anchor="middle" x="74.54" y="-508.22" font-family="Helvetica,sans-Serif" font-size="11.00">qA0</text>
<text text-anchor="middle" x="74.54" y="-496.22" font-family="Helvetica,sans-Serif" font-size="11.00">(n=0)</text>
</g>
<!-- start&#45;&gt;qA0 -->
<g id="edge1" class="edge">
<title>start&#45;&gt;qA0</title>
<path fill="none" stroke="black" d="M3.8,-505.02C7.25,-505.02 19.15,-505.02 32.17,-505.02"/>
<polygon fill="black" stroke="black" points="32.36,-507.82 40.36,-505.02 32.36,-502.22 32.36,-507.82"/>
</g>
<!-- qA1 -->
<g id="node3" class="node">
<title>qA1</title>
<ellipse fill="none" stroke="black" cx="74.54" cy="-402.02" rx="33.88" ry="33.88"/>
<text text-anchor="middle" x="74.54" y="-405.22" font-family="Helvetica,sans-Serif" font-size="11.00">qA1</text>
<text text-anchor="middle" x="74.54" y="-393.22" font-family="Helvetica,sans-Serif" font-size="11.00">(n=1)</text>
</g>
<!-- qA0&#45;&gt;qA1 -->
<g id="edge2" class="edge">
<title>qA0&#45;&gt;qA1</title>
<path fill="none" stroke="black" d="M74.54,-471.04C74.54,-462.43 74.54,-453.08 74.54,-444.12"/>
<polygon fill="black" stroke="black" points="77.34,-444.03 74.54,-436.03 71.74,-444.03 77.34,-444.03"/>
<text text-anchor="middle" x="66.04" y="-451.02" font-family="Helvetica,sans-Serif" font-size="10.00">a / push A</text>
</g>
<!-- qC0 -->
<g id="node5" class="node">
<title>qC0</title>
<ellipse fill="none" stroke="black" cx="261.07" cy="-491.02" rx="68.68" ry="68.68"/>
<text text-anchor="middle" x="261.07" y="-494.22" font-family="Helvetica,sans-Serif" font-size="11.00">qC0</text>
<text text-anchor="middle" x="261.07" y="-482.22" font-family="Helvetica,sans-Serif" font-size="11.00">(чтение c^m)</text>
</g>
<!-- qA0&#45;&gt;qC0 -->
<g id="edge5" class="edge">
<title>qA0&#45;&gt;qC0</title>
<path fill="none" stroke="black" d="M108.53,-502.52C129.67,-500.91 158.01,-498.76 184.46,-496.76"/>
<polygon fill="black" stroke="black" points="184.83,-499.54 192.59,-496.14 184.4,-493.95 184.83,-499.54"/>
<text text-anchor="middle" x="150.48" y="-504.02" font-family="Helvetica,sans-Serif" font-size="10.00">c / push C</text>
</g>
<!-- qA2 -->
<g id="node4" class="node">
<title>qA2</title>
<ellipse fill="none" stroke="black" cx="74.54" cy="-270.02" rx="33.88" ry="33.88"/>
<text text-anchor="middle" x="74.54" y="-273.22" font-family="Helvetica,sans-Serif" font-size="11.00">qA2</text>
<text text-anchor="middle" x="74.54" y="-261.22" font-family="Helvetica,sans-Serif" font-size="11.00">(n≥2)</text>
</g>
<!-- qA1&#45;&gt;qA2 -->
<g id="edge3" class="edge">
<title>qA1&#45;&gt;qA2</title>
<path fill="none" stroke="black" d="M74.54,-367.68C74.54,-350.67 74.54,-329.99 74.54,-312.04"/>
<polygon fill="black" stroke="black" points="77.34,-312.01 74.54,-304.01 71.74,-312.01 77.34,-312.01"/>
<text text-anchor="middle" x="66.04" y="-333.52" font-family="Helvetica,sans-Serif" font-size="10.00">a / push A</text>
</g>
<!-- qA1&#45;&gt;qC0 -->
<g id="edge6" class="edge">
<title>qA1&#45;&gt;qC0</title>
<path fill="none" stroke="black" d="M105.6,-416.52C128.85,-427.73 161.98,-443.71 191.59,-457.99"/>
<polygon fill="black" stroke="black" points="190.61,-460.63 199.04,-461.58 193.05,-455.58 190.61,-460.63"/>
<text text-anchor="middle" x="150.48" y="-453.02" font-family="Helvetica,sans-Serif" font-size="10.00">c / push C</text>
</g>
<!-- qA2&#45;&gt;qA2 -->
<g id="edge4" class="edge">
<title>qA2&#45;&gt;qA2</title>
<path fill="none" stroke="black" d="M64.79,-302.74C64.84,-313.44 68.09,-321.96 74.54,-321.96 79.18,-321.96 82.16,-317.56 83.49,-311.11"/>
<polygon fill="black" stroke="black" points="86.32,-310.97 84.29,-302.74 80.74,-310.43 86.32,-310.97"/>
<text text-anchor="middle" x="74.54" y="-324.96" font-family="Helvetica,sans-Serif" font-size="10.00">a / push A</text>
</g>
<!-- qC2 -->
<g id="node6" class="node">
<title>qC2</title>
<ellipse fill="none" stroke="black" cx="261.07" cy="-270.02" rx="68.68" ry="68.68"/>
<text text-anchor="middle" x="261.07" y="-273.22" font-family="Helvetica,sans-Serif" font-size="11.00">qC2</text>
<text text-anchor="middle" x="261.07" y="-261.22" font-family="Helvetica,sans-Serif" font-size="11.00">(чтение c^m)</text>
</g>
<!-- qA2&#45;&gt;qC2 -->
<g id="edge7" class="edge">
<title>qA2&#45;&gt;qC2</title>
<path fill="none" stroke="black" d="M108.53,-270.02C129.58,-270.02 157.75,-270.02 184.1,-270.02"/>
<polygon fill="black" stroke="black" points="184.21,-272.82 192.21,-270.02 184.21,-267.22 184.21,-272.82"/>
<text text-anchor="middle" x="150.48" y="-273.02" font-family="Helvetica,sans-Serif" font-size="10.00">c / push C</text>
</g>
<!-- qC0&#45;&gt;qC0 -->
<g id="edge8" class="edge">
<title>qC0&#45;&gt;qC0</title>
<path fill="none" stroke="black" d="M241.58,-557.09C244.05,-569.15 250.54,-577.61 261.07,-577.61 269.13,-577.61 274.83,-572.65 278.16,-564.91"/>
<polygon fill="black" stroke="black" points="280.9,-565.56 280.56,-557.09 275.54,-563.92 280.9,-565.56"/>
<text text-anchor="middle" x="261.07" y="-580.61" font-family="Helvetica,sans-Serif" font-size="10.00">c / push C</text>
</g>
<!-- qP0 -->
<g id="node7" class="node">
<title>qP0</title>
<ellipse fill="none" stroke="black" cx="500.82" cy="-491.02" rx="55.31" ry="55.31"/>
<text text-anchor="middle" x="500.82" y="-494.22" font-family="Helvetica,sans-Serif" font-size="11.00">qP0</text>
<text text-anchor="middle" x="500.82" y="-482.22" font-family="Helvetica,sans-Serif" font-size="11.00">(снятие C)</text>
</g>
<!-- qC0&#45;&gt;qP0 -->
<g id="edge10" class="edge">
<title>qC0&#45;&gt;qP0</title>
<path fill="none" stroke="black" d="M329.88,-491.02C363.66,-491.02 404.24,-491.02 437.27,-491.02"/>
<polygon fill="black" stroke="black" points="437.49,-493.82 445.49,-491.02 437.49,-488.22 437.49,-493.82"/>
<text text-anchor="middle" x="387.66" y="-494.02" font-family="Helvetica,sans-Serif" font-size="10.00">b, top=C / pop C</text>
</g>
<!-- qC2&#45;&gt;qC2 -->
<g id="edge9" class="edge">
<title>qC2&#45;&gt;qC2</title>
<path fill="none" stroke="black" d="M241.58,-336.09C244.05,-348.15 250.54,-356.61 261.07,-356.61 269.13,-356.61 274.83,-351.65 278.16,-343.91"/>
<polygon fill="black" stroke="black" points="280.9,-344.56 280.56,-336.09 275.54,-342.92 280.9,-344.56"/>
<text text-anchor="middle" x="261.07" y="-359.61" font-family="Helvetica,sans-Serif" font-size="10.00">c / push C</text>
</g>
<!-- qP2 -->
<g id="node8" class="node">
<title>qP2</title>
<ellipse fill="none" stroke="black" cx="500.82" cy="-270.02" rx="55.31" ry="55.31"/>
<text text-anchor="middle" x="500.82" y="-273.22" font-family="Helvetica,sans-Serif" font-size="11.00">qP2</text>
<text text-anchor="middle" x="500.82" y="-261.22" font-family="Helvetica,sans-Serif" font-size="11.00">(снятие C)</text>
</g>
<!-- qC2&#45;&gt;qP2 -->
<g id="edge11" class="edge">
<title>qC2&#45;&gt;qP2</title>
<path fill="none" stroke="black" d="M329.88,-270.02C363.66,-270.02 404.24,-270.02 437.27,-270.02"/>
<polygon fill="black" stroke="black" points="437.49,-272.82 445.49,-270.02 437.49,-267.22 437.49,-272.82"/>
<text text-anchor="middle" x="387.66" y="-273.02" font-family="Helvetica,sans-Serif" font-size="10.00">b, top=C / pop C</text>
</g>
<!-- qP0&#45;&gt;qP0 -->
<g id="edge12" class="edge">
<title>qP0&#45;&gt;qP0</title>
<path fill="none" stroke="black" d="M480.92,-542.63C482.48,-555 489.11,-564.17 500.82,-564.17 509.78,-564.17 515.77,-558.8 518.78,-550.73"/>
<polygon fill="black" stroke="black" points="521.58,-551.06 520.71,-542.63 516.13,-549.76 521.58,-551.06"/>
<text text-anchor="middle" x="500.82" y="-567.17" font-family="Helvetica,sans-Serif" font-size="10.00">b, top=C / pop C</text>
</g>
<!-- qIle0 -->
<g id="node9" class="node">
<title>qIle0</title>
<ellipse fill="none" stroke="black" cx="728.61" cy="-483.02" rx="63.78" ry="63.78"/>
<text text-anchor="middle" x="728.61" y="-486.22" font-family="Helvetica,sans-Serif" font-size="11.00">qI≤0</text>
<text text-anchor="middle" x="728.61" y="-474.22" font-family="Helvetica,sans-Serif" font-size="11.00">(extra=false)</text>
</g>
<!-- qP0&#45;&gt;qIle0 -->
<g id="edge14" class="edge">
<title>qP0&#45;&gt;qIle0</title>
<path fill="none" stroke="black" d="M556.19,-489.09C586.38,-488.02 624.3,-486.68 656.79,-485.53"/>
<polygon fill="black" stroke="black" points="657.03,-488.32 664.92,-485.24 656.83,-482.73 657.03,-488.32"/>
<text text-anchor="middle" x="610.47" y="-492.02" font-family="Helvetica,sans-Serif" font-size="10.00">c, top=A / A→B</text>
</g>
<!-- qIgt0 -->
<g id="node11" class="node">
<title>qIgt0</title>
<ellipse fill="none" stroke="black" cx="974.06" cy="-483.02" rx="60.62" ry="60.62"/>
<text text-anchor="middle" x="974.06" y="-486.22" font-family="Helvetica,sans-Serif" font-size="11.00">qI&gt;0</text>
<text text-anchor="middle" x="974.06" y="-474.22" font-family="Helvetica,sans-Serif" font-size="11.00">(extra=true)</text>
</g>
<!-- qP0&#45;&gt;qIgt0 -->
<g id="edge15" class="edge">
<title>qP0&#45;&gt;qIgt0</title>
<path fill="none" stroke="black" d="M545.06,-524.38C576.43,-546.38 620.92,-573.24 664.97,-585.02 719.62,-599.64 737.54,-599.39 792.25,-585.02 837.84,-573.05 884.04,-546.69 918.32,-523.76"/>
<polygon fill="black" stroke="black" points="919.96,-526.03 925.02,-519.23 916.82,-521.4 919.96,-526.03"/>
<text text-anchor="middle" x="728.61" y="-599.02" font-family="Helvetica,sans-Serif" font-size="10.00">c, top=B|⊥ / stay</text>
</g>
<!-- qK -->
<g id="node13" class="node">
<title>qK</title>
<ellipse fill="none" stroke="black" cx="1263.2" cy="-343.02" rx="74.91" ry="74.91"/>
<text text-anchor="middle" x="1263.2" y="-346.22" font-family="Helvetica,sans-Serif" font-size="11.00">qK</text>
<text text-anchor="middle" x="1263.2" y="-334.22" font-family="Helvetica,sans-Serif" font-size="11.00">(проверка k=n)</text>
</g>
<!-- qP0&#45;&gt;qK -->
<g id="edge18" class="edge">
<title>qP0&#45;&gt;qK</title>
<path fill="none" stroke="black" d="M548.34,-462.95C580.11,-445.05 623.76,-422.87 664.97,-410.02 842.73,-354.56 1062.9,-343.87 1179.96,-342.47"/>
<polygon fill="black" stroke="black" points="1180.23,-345.27 1188.2,-342.39 1180.18,-339.67 1180.23,-345.27"/>
<text text-anchor="middle" x="852.75" y="-378.02" font-family="Helvetica,sans-Serif" font-size="10.00">b, top=A / pop</text>
</g>
<!-- qAcc -->
<g id="node15" class="node">
<title>qAcc</title>
<ellipse fill="none" stroke="black" cx="1454.82" cy="-448.02" rx="27.8" ry="27.8"/>
<ellipse fill="none" stroke="black" cx="1454.82" cy="-448.02" rx="31.82" ry="31.82"/>
<text text-anchor="middle" x="1454.82" y="-445.22" font-family="Helvetica,sans-Serif" font-size="11.00">qACC</text>
</g>
<!-- qP0&#45;&gt;qAcc -->
<g id="edge20" class="edge">
<title>qP0&#45;&gt;qAcc</title>
<path fill="none" stroke="black" d="M534.9,-534.74C574.88,-582.11 646.89,-651.02 727.61,-651.02 727.61,-651.02 727.61,-651.02 1264.2,-651.02 1353.97,-651.02 1413.45,-543.69 1439.22,-485.12"/>
<polygon fill="black" stroke="black" points="1441.89,-485.99 1442.49,-477.54 1436.75,-483.78 1441.89,-485.99"/>
<text text-anchor="middle" x="974.06" y="-654.02" font-family="Helvetica,sans-Serif" font-size="10.00">⊣, top=⊥</text>
</g>
<!-- qP2&#45;&gt;qP2 -->
<g id="edge13" class="edge">
<title>qP2&#45;&gt;qP2</title>
<path fill="none" stroke="black" d="M480.92,-321.63C482.48,-334 489.11,-343.17 500.82,-343.17 509.78,-343.17 515.77,-337.8 518.78,-329.73"/>
<polygon fill="black" stroke="black" points="521.58,-330.06 520.71,-321.63 516.13,-328.76 521.58,-330.06"/>
<text text-anchor="middle" x="500.82" y="-346.17" font-family="Helvetica,sans-Serif" font-size="10.00">b, top=C / pop C</text>
</g>
<!-- qIle2 -->
<g id="node10" class="node">
<title>qIle2</title>
<ellipse fill="none" stroke="black" cx="728.61" cy="-141.02" rx="63.78" ry="63.78"/>
<text text-anchor="middle" x="728.61" y="-144.22" font-family="Helvetica,sans-Serif" font-size="11.00">qI≤2</text>
<text text-anchor="middle" x="728.61" y="-132.22" font-family="Helvetica,sans-Serif" font-size="11.00">(extra=false)</text>
</g>
<!-- qP2&#45;&gt;qIle2 -->
<g id="edge16" class="edge">
<title>qP2&#45;&gt;qIle2</title>
<path fill="none" stroke="black" d="M549.15,-242.98C582.97,-223.65 628.81,-197.46 665.56,-176.47"/>
<polygon fill="black" stroke="black" points="667.23,-178.74 672.79,-172.34 664.45,-173.88 667.23,-178.74"/>
<text text-anchor="middle" x="610.47" y="-232.02" font-family="Helvetica,sans-Serif" font-size="10.00">c, top=A / A→B</text>
</g>
<!-- qIgt2 -->
<g id="node12" class="node">
<title>qIgt2</title>
<ellipse fill="none" stroke="black" cx="974.06" cy="-144.02" rx="60.62" ry="60.62"/>
<text text-anchor="middle" x="974.06" y="-147.22" font-family="Helvetica,sans-Serif" font-size="11.00">qI&gt;2</text>
<text text-anchor="middle" x="974.06" y="-135.22" font-family="Helvetica,sans-Serif" font-size="11.00">(extra=true)</text>
</g>
<!-- qP2&#45;&gt;qIgt2 -->
<g id="edge17" class="edge">
<title>qP2&#45;&gt;qIgt2</title>
<path fill="none" stroke="black" d="M556.07,-271.47C615.38,-271.58 712.59,-267.38 792.25,-243.02 836.5,-229.48 882.18,-204.37 916.55,-182.82"/>
<polygon fill="black" stroke="black" points="918.45,-184.93 923.71,-178.28 915.45,-180.2 918.45,-184.93"/>
<text text-anchor="middle" x="728.61" y="-270.02" font-family="Helvetica,sans-Serif" font-size="10.00">c, top=B / stay</text>
</g>
<!-- qP2&#45;&gt;qK -->
<g id="edge19" class="edge">
<title>qP2&#45;&gt;qK</title>
<path fill="none" stroke="black" d="M554.9,-281C561.31,-282.13 567.78,-283.17 573.97,-284.02 837.39,-320.29 905.55,-307.75 1170.25,-333.02 1173.58,-333.34 1176.97,-333.67 1180.4,-334.01"/>
<polygon fill="black" stroke="black" points="1180.2,-336.8 1188.44,-334.82 1180.77,-331.23 1180.2,-336.8"/>
<text text-anchor="middle" x="852.75" y="-317.02" font-family="Helvetica,sans-Serif" font-size="10.00">b, top=A / pop</text>
</g>
<!-- qIle0&#45;&gt;qIle0 -->
<g id="edge21" class="edge">
<title>qIle0&#45;&gt;qIle0</title>
<path fill="none" stroke="black" d="M707.26,-543.18C709.51,-555.68 716.62,-564.66 728.61,-564.66 737.78,-564.66 744.11,-559.39 747.57,-551.32"/>
<polygon fill="black" stroke="black" points="750.39,-551.65 749.96,-543.18 745.02,-550.08 750.39,-551.65"/>
<text text-anchor="middle" x="728.61" y="-567.66" font-family="Helvetica,sans-Serif" font-size="10.00">c, top=A / A→B</text>
</g>
<!-- qIle0&#45;&gt;qIgt0 -->
<g id="edge22" class="edge">
<title>qIle0&#45;&gt;qIgt0</title>
<path fill="none" stroke="black" d="M792.3,-483.02C826.74,-483.02 869.48,-483.02 904.76,-483.02"/>
<polygon fill="black" stroke="black" points="905.1,-485.82 913.1,-483.02 905.1,-480.22 905.1,-485.82"/>
<text text-anchor="middle" x="852.75" y="-486.02" font-family="Helvetica,sans-Serif" font-size="10.00">c, top=B|⊥ / stay</text>
</g>
<!-- qIle0&#45;&gt;qK -->
<g id="edge29" class="edge">
<title>qIle0&#45;&gt;qK</title>
<path fill="none" stroke="black" d="M785.27,-453.97C820.97,-436.48 868.8,-415.13 913.25,-402.02 1024.19,-369.3 1056.37,-381.24 1170.25,-361.02 1173.96,-360.36 1177.75,-359.67 1181.58,-358.97"/>
<polygon fill="black" stroke="black" points="1182.11,-361.72 1189.47,-357.5 1181.09,-356.21 1182.11,-361.72"/>
<text text-anchor="middle" x="974.06" y="-405.02" font-family="Helvetica,sans-Serif" font-size="10.00">b, top=A|B / pop</text>
</g>
<!-- qIle0&#45;&gt;qAcc -->
<g id="edge33" class="edge">
<title>qIle0&#45;&gt;qAcc</title>
<path fill="none" stroke="black" d="M780.96,-519.69C816.29,-542.58 865.31,-569.92 913.25,-582.02 1105,-630.41 1335.42,-515.93 1420.31,-467.95"/>
<polygon fill="black" stroke="black" points="1421.8,-470.33 1427.36,-463.93 1419.03,-465.47 1421.8,-470.33"/>
<text text-anchor="middle" x="1111.56" y="-595.02" font-family="Helvetica,sans-Serif" font-size="10.00">⊣, top=⊥</text>
</g>
<!-- qIle2&#45;&gt;qIle2 -->
<g id="edge24" class="edge">
<title>qIle2&#45;&gt;qIle2</title>
<path fill="none" stroke="black" d="M707.26,-201.18C709.51,-213.68 716.62,-222.66 728.61,-222.66 737.78,-222.66 744.11,-217.39 747.57,-209.32"/>
<polygon fill="black" stroke="black" points="750.39,-209.65 749.96,-201.18 745.02,-208.08 750.39,-209.65"/>
<text text-anchor="middle" x="728.61" y="-225.66" font-family="Helvetica,sans-Serif" font-size="10.00">c, top=A / A→B</text>
</g>
<!-- qIle2&#45;&gt;qIgt2 -->
<g id="edge25" class="edge">
<title>qIle2&#45;&gt;qIgt2</title>
<path fill="none" stroke="black" d="M792.3,-141.79C826.74,-142.22 869.48,-142.74 904.76,-143.18"/>
<polygon fill="black" stroke="black" points="905.06,-145.98 913.1,-143.28 905.13,-140.38 905.06,-145.98"/>
<text text-anchor="middle" x="852.75" y="-147.02" font-family="Helvetica,sans-Serif" font-size="10.00">c, top=B / stay</text>
</g>
<!-- qIle2&#45;&gt;qK -->
<g id="edge31" class="edge">
<title>qIle2&#45;&gt;qK</title>
<path fill="none" stroke="black" d="M782.16,-175.93C817.79,-198.14 866.71,-225.86 913.25,-243.02 1022.59,-283.34 1060.4,-256.11 1170.25,-295.02 1176.78,-297.33 1183.42,-300.03 1189.99,-302.95"/>
<polygon fill="black" stroke="black" points="1189.23,-305.68 1197.67,-306.47 1191.56,-300.59 1189.23,-305.68"/>
<text text-anchor="middle" x="974.06" y="-272.02" font-family="Helvetica,sans-Serif" font-size="10.00">b, top=A / pop</text>
</g>
<!-- qAny -->
<g id="node14" class="node">
<title>qAny</title>
<ellipse fill="none" stroke="black" cx="1111.56" cy="-103.02" rx="58.88" ry="58.88"/>
<text text-anchor="middle" x="1111.56" y="-106.22" font-family="Helvetica,sans-Serif" font-size="11.00">qANY</text>
<text text-anchor="middle" x="1111.56" y="-94.22" font-family="Helvetica,sans-Serif" font-size="11.00">(i=n ∧ n&gt;1)</text>
</g>
<!-- qIle2&#45;&gt;qAny -->
<g id="edge27" class="edge">
<title>qIle2&#45;&gt;qAny</title>
<path fill="none" stroke="black" d="M786.48,-114.4C822.05,-99.25 869.3,-81.79 913.25,-74.02 966.48,-64.61 981.72,-64.19 1034.87,-74.02 1039.77,-74.93 1044.77,-76.14 1049.74,-77.55"/>
<polygon fill="black" stroke="black" points="1049.04,-80.27 1057.51,-79.93 1050.68,-74.91 1049.04,-80.27"/>
<text text-anchor="middle" x="852.75" y="-108.02" font-family="Helvetica,sans-Serif" font-size="10.00">b, top=B / stay</text>
</g>
<!-- qIle2&#45;&gt;qAcc -->
<g id="edge28" class="edge">
<title>qIle2&#45;&gt;qAcc</title>
<path fill="none" stroke="black" d="M775.09,-96.77C785.93,-88.14 797.95,-79.94 810.25,-74.02 955.83,-4.01 1015.84,23.44 1170.25,-24.02 1314.14,-68.25 1350.73,-127.67 1405.16,-268.02 1423.49,-315.3 1437.61,-372.12 1445.81,-409.1"/>
<polygon fill="black" stroke="black" points="1443.12,-409.91 1447.56,-417.13 1448.59,-408.72 1443.12,-409.91"/>
<text text-anchor="middle" x="1111.56" y="-27.02" font-family="Helvetica,sans-Serif" font-size="10.00">⊣, top=B</text>
</g>
<!-- qIgt0&#45;&gt;qIgt0 -->
<g id="edge23" class="edge">
<title>qIgt0&#45;&gt;qIgt0</title>
<path fill="none" stroke="black" d="M952.17,-540.05C954.22,-552.65 961.52,-561.83 974.06,-561.83 983.86,-561.83 990.45,-556.23 993.85,-547.77"/>
<polygon fill="black" stroke="black" points="996.55,-548.5 995.95,-540.05 991.15,-547.03 996.55,-548.5"/>
<text text-anchor="middle" x="974.06" y="-564.83" font-family="Helvetica,sans-Serif" font-size="10.00">c / stay</text>
</g>
<!-- qIgt0&#45;&gt;qK -->
<g id="edge30" class="edge">
<title>qIgt0&#45;&gt;qK</title>
<path fill="none" stroke="black" d="M1032.15,-464.8C1071.93,-451.16 1125.64,-430.79 1170.25,-407.02 1178.78,-402.47 1187.47,-397.28 1195.93,-391.86"/>
<polygon fill="black" stroke="black" points="1197.48,-394.19 1202.66,-387.47 1194.42,-389.5 1197.48,-394.19"/>
<text text-anchor="middle" x="1111.56" y="-460.02" font-family="Helvetica,sans-Serif" font-size="10.00">b, top=A|B / pop</text>
</g>
<!-- qIgt0&#45;&gt;qAcc -->
<g id="edge34" class="edge">
<title>qIgt0&#45;&gt;qAcc</title>
<path fill="none" stroke="black" d="M1034.86,-478.77C1073.49,-476.01 1124.85,-472.33 1170.25,-469.02 1257.82,-462.64 1360.6,-454.98 1415.17,-450.91"/>
<polygon fill="black" stroke="black" points="1415.42,-453.7 1423.19,-450.31 1415,-448.11 1415.42,-453.7"/>
<text text-anchor="middle" x="1263.2" y="-471.02" font-family="Helvetica,sans-Serif" font-size="10.00">⊣, top=⊥</text>
</g>
<!-- qIgt2&#45;&gt;qIgt2 -->
<g id="edge26" class="edge">
<title>qIgt2&#45;&gt;qIgt2</title>
<path fill="none" stroke="black" d="M952.17,-201.05C954.22,-213.65 961.52,-222.83 974.06,-222.83 983.86,-222.83 990.45,-217.23 993.85,-208.77"/>
<polygon fill="black" stroke="black" points="996.55,-209.5 995.95,-201.05 991.15,-208.03 996.55,-209.5"/>
<text text-anchor="middle" x="974.06" y="-225.83" font-family="Helvetica,sans-Serif" font-size="10.00">c / stay</text>
</g>
<!-- qIgt2&#45;&gt;qK -->
<g id="edge32" class="edge">
<title>qIgt2&#45;&gt;qK</title>
<path fill="none" stroke="black" d="M1022.36,-180.98C1032.16,-187.79 1042.62,-194.49 1052.87,-200.02 1102.04,-226.56 1123.88,-213.86 1170.25,-245.02 1184.31,-254.47 1197.8,-266.44 1209.9,-278.75"/>
<polygon fill="black" stroke="black" points="1208.16,-280.98 1215.72,-284.81 1212.2,-277.1 1208.16,-280.98"/>
<text text-anchor="middle" x="1111.56" y="-248.02" font-family="Helvetica,sans-Serif" font-size="10.00">b, top=B / pop</text>
</g>
<!-- qK&#45;&gt;qK -->
<g id="edge37" class="edge">
<title>qK&#45;&gt;qK</title>
<path fill="none" stroke="black" d="M1242.99,-415.51C1245.82,-427.62 1252.56,-435.97 1263.2,-435.97 1271.36,-435.97 1277.22,-431.07 1280.79,-423.34"/>
<polygon fill="black" stroke="black" points="1283.53,-423.98 1283.42,-415.51 1278.22,-422.2 1283.53,-423.98"/>
<text text-anchor="middle" x="1263.2" y="-438.97" font-family="Helvetica,sans-Serif" font-size="10.00">b, top=A|B / pop</text>
</g>
<!-- qK&#45;&gt;qAcc -->
<g id="edge38" class="edge">
<title>qK&#45;&gt;qAcc</title>
<path fill="none" stroke="black" d="M1329.19,-379.01C1359.44,-395.76 1394.2,-415 1419.31,-428.91"/>
<polygon fill="black" stroke="black" points="1418.09,-431.44 1426.45,-432.86 1420.81,-426.54 1418.09,-431.44"/>
<text text-anchor="middle" x="1380.66" y="-423.02" font-family="Helvetica,sans-Serif" font-size="10.00">⊣, top=⊥</text>
</g>
<!-- qAny&#45;&gt;qAny -->
<g id="edge35" class="edge">
<title>qAny&#45;&gt;qAny</title>
<path fill="none" stroke="black" d="M1086.37,-156.07C1088.02,-169.57 1096.42,-179.71 1111.56,-179.71 1123.51,-179.71 1131.26,-173.4 1134.81,-164.1"/>
<polygon fill="black" stroke="black" points="1137.59,-164.5 1136.76,-156.07 1132.15,-163.18 1137.59,-164.5"/>
<text text-anchor="middle" x="1111.56" y="-182.71" font-family="Helvetica,sans-Serif" font-size="10.00">b / stay</text>
</g>
<!-- qAny&#45;&gt;qAcc -->
<g id="edge36" class="edge">
<title>qAny&#45;&gt;qAcc</title>
<path fill="none" stroke="black" d="M1165.04,-127.57C1214.28,-152.58 1287.7,-195.13 1338.16,-248.02 1384.91,-297.02 1420.31,-368.4 1438.99,-411.31"/>
<polygon fill="black" stroke="black" points="1436.44,-412.47 1442.17,-418.72 1441.59,-410.26 1436.44,-412.47"/>
<text text-anchor="middle" x="1263.2" y="-251.02" font-family="Helvetica,sans-Serif" font-size="10.00">⊣ / stay</text>
</g>
</g>
</svg>
