<?xml version="1.0" encoding="UTF-8" standalone="no"?>
<!DOCTYPE svg PUBLIC "-//W3C//DTD SVG 1.1//EN"
 "http://www.w3.org/Graphics/SVG/1.1/DTD/svg11.dtd">
<!-- Generated by graphviz version 2.43.0 (0)
 -->
<!-- Title: Block W: (bcc*a)* Pages: 1 -->
<svg width="271pt" height="93pt"
 viewBox="0.00 0.00 271.29 92.90" xmlns="http://www.w3.org/2000/svg" xmlns:xlink="http://www.w3.org/1999/xlink">
<g id="graph0" class="graph" transform="scale(1 1) rotate(0) translate(4 88.9)">
<title>Block W: (bcc*a)*</title>
<polygon fill="white" stroke="transparent" points="-4,4 -4,-88.9 267.29,-88.9 267.29,4 -4,4"/>
<!-- start -->
<g id="node1" class="node">
<title>start</title>
<ellipse fill="black" stroke="black" cx="1.8" cy="-25.45" rx="1.8" ry="1.8"/>
</g>
<!-- w0 -->
<g id="node2" class="node">
<title>w0</title>
<ellipse fill="none" stroke="black" cx="66.05" cy="-25.45" rx="21.4" ry="21.4"/>
<ellipse fill="none" stroke="black" cx="66.05" cy="-25.45" rx="25.4" ry="25.4"/>
<text text-anchor="middle" x="66.05" y="-21.75" font-family="Times,serif" font-size="14.00">w0</text>
</g>
<!-- start&#45;&gt;w0 -->
<g id="edge1" class="edge">
<title>start&#45;&gt;w0</title>
<path fill="none" stroke="black" d="M3.88,-25.45C7.34,-25.45 18.59,-25.45 30.53,-25.45"/>
<polygon fill="black" stroke="black" points="30.55,-28.95 40.55,-25.45 30.55,-21.95 30.55,-28.95"/>
</g>
<!-- w1 -->
<g id="node3" class="node">
<title>w1</title>
<ellipse fill="none" stroke="black" cx="155.94" cy="-63.45" rx="21.4" ry="21.4"/>
<text text-anchor="middle" x="155.94" y="-59.75" font-family="Times,serif" font-size="14.00">w1</text>
</g>
<!-- w0&#45;&gt;w1 -->
<g id="edge2" class="edge">
<title>w0&#45;&gt;w1</title>
<path fill="none" stroke="black" d="M89.68,-35.23C100.89,-40.08 114.54,-45.98 126.45,-51.13"/>
<polygon fill="black" stroke="black" points="125.38,-54.48 135.95,-55.24 128.16,-48.06 125.38,-54.48"/>
<text text-anchor="middle" x="113" y="-50.25" font-family="Times,serif" font-size="14.00">b</text>
</g>
<!-- w2 -->
<g id="node4" class="node">
<title>w2</title>
<ellipse fill="none" stroke="black" cx="241.84" cy="-25.45" rx="21.4" ry="21.4"/>
<text text-anchor="middle" x="241.84" y="-21.75" font-family="Times,serif" font-size="14.00">w2</text>
</g>
<!-- w1&#45;&gt;w2 -->
<g id="edge3" class="edge">
<title>w1&#45;&gt;w2</title>
<path fill="none" stroke="black" d="M175.98,-54.83C186.82,-49.92 200.59,-43.68 212.66,-38.21"/>
<polygon fill="black" stroke="black" points="214.21,-41.35 221.88,-34.04 211.33,-34.97 214.21,-41.35"/>
<text text-anchor="middle" x="198.89" y="-49.25" font-family="Times,serif" font-size="14.00">c</text>
</g>
<!-- w2&#45;&gt;w0 -->
<g id="edge5" class="edge">
<title>w2&#45;&gt;w0</title>
<path fill="none" stroke="black" d="M220.31,-22.61C207.91,-21.03 191.78,-19.24 177.39,-18.45 158.36,-17.4 153.54,-17.46 134.5,-18.45 123.74,-19 112.05,-20.06 101.48,-21.18"/>
<polygon fill="black" stroke="black" points="100.9,-17.72 91.35,-22.31 101.68,-24.68 100.9,-17.72"/>
<text text-anchor="middle" x="155.94" y="-22.25" font-family="Times,serif" font-size="14.00">a</text>
</g>
<!-- w2&#45;&gt;w2 -->
<g id="edge4" class="edge">
<title>w2&#45;&gt;w2</title>
<path fill="none" stroke="black" d="M234.2,-45.74C233.14,-55.87 235.69,-64.9 241.84,-64.9 245.78,-64.9 248.24,-61.19 249.23,-55.87"/>
<polygon fill="black" stroke="black" points="252.73,-55.83 249.48,-45.74 245.73,-55.65 252.73,-55.83"/>
<text text-anchor="middle" x="241.84" y="-68.7" font-family="Times,serif" font-size="14.00">c</text>
</g>
</g>
</svg>
