<?xml version="1.0" encoding="UTF-8" standalone="no"?>
<!DOCTYPE svg PUBLIC "-//W3C//DTD SVG 1.1//EN"
 "http://www.w3.org/Graphics/SVG/1.1/DTD/svg11.dtd">
<!-- Generated by graphviz version 2.43.0 (0)
 -->
<!-- Title: Block M: (cZaW|ac)* Pages: 1 -->
<svg width="448pt" height="209pt"
 viewBox="0.00 0.00 448.28 209.20" xmlns="http://www.w3.org/2000/svg" xmlns:xlink="http://www.w3.org/1999/xlink">
<g id="graph0" class="graph" transform="scale(1 1) rotate(0) translate(4 205.2)">
<title>Block M: (cZaW|ac)*</title>
<polygon fill="white" stroke="transparent" points="-4,4 -4,-205.2 444.28,-205.2 444.28,4 -4,4"/>
<!-- start -->
<g id="node1" class="node">
<title>start</title>
<ellipse fill="black" stroke="black" cx="1.8" cy="-125.45" rx="1.8" ry="1.8"/>
</g>
<!-- m0 -->
<g id="node2" class="node">
<title>m0</title>
<ellipse fill="none" stroke="black" cx="67.35" cy="-125.45" rx="22.96" ry="22.96"/>
<ellipse fill="none" stroke="black" cx="67.35" cy="-125.45" rx="27" ry="27"/>
<text text-anchor="middle" x="67.35" y="-121.75" font-family="Times,serif" font-size="14.00">m0</text>
</g>
<!-- start&#45;&gt;m0 -->
<g id="edge1" class="edge">
<title>start&#45;&gt;m0</title>
<path fill="none" stroke="black" d="M3.9,-125.45C7.35,-125.45 18.42,-125.45 30.31,-125.45"/>
<polygon fill="black" stroke="black" points="30.33,-128.95 40.33,-125.45 30.33,-121.95 30.33,-128.95"/>
</g>
<!-- m1 -->
<g id="node3" class="node">
<title>m1</title>
<ellipse fill="none" stroke="black" cx="159.84" cy="-178.45" rx="23" ry="23"/>
<text text-anchor="middle" x="159.84" y="-174.75" font-family="Times,serif" font-size="14.00">m1</text>
</g>
<!-- m0&#45;&gt;m1 -->
<g id="edge2" class="edge">
<title>m0&#45;&gt;m1</title>
<path fill="none" stroke="black" d="M87.89,-143.2C95.14,-149.21 103.66,-155.61 112.1,-160.45 117.09,-163.32 122.63,-165.91 128.1,-168.17"/>
<polygon fill="black" stroke="black" points="127.15,-171.55 137.74,-171.88 129.66,-165.02 127.15,-171.55"/>
<text text-anchor="middle" x="115.6" y="-167.25" font-family="Times,serif" font-size="14.00">a</text>
</g>
<!-- z0 -->
<g id="node4" class="node">
<title>z0</title>
<ellipse fill="none" stroke="black" cx="159.84" cy="-110.45" rx="18.7" ry="18.7"/>
<text text-anchor="middle" x="159.84" y="-106.75" font-family="Times,serif" font-size="14.00">z0</text>
</g>
<!-- m0&#45;&gt;z0 -->
<g id="edge3" class="edge">
<title>m0&#45;&gt;z0</title>
<path fill="none" stroke="black" d="M91.89,-113.8C98.29,-111.18 105.33,-108.79 112.1,-107.45 118.13,-106.26 124.67,-106.03 130.9,-106.3"/>
<polygon fill="black" stroke="black" points="130.68,-109.8 140.94,-107.15 131.27,-102.82 130.68,-109.8"/>
<text text-anchor="middle" x="115.6" y="-111.25" font-family="Times,serif" font-size="14.00">c</text>
</g>
<!-- m1&#45;&gt;m0 -->
<g id="edge4" class="edge">
<title>m1&#45;&gt;m0</title>
<path fill="none" stroke="black" d="M143.92,-161.54C136.97,-154.51 128.22,-146.76 119.1,-141.45 114.21,-138.6 108.75,-136.2 103.28,-134.19"/>
<polygon fill="black" stroke="black" points="104.13,-130.79 93.54,-131 101.95,-137.44 104.13,-130.79"/>
<text text-anchor="middle" x="115.6" y="-145.25" font-family="Times,serif" font-size="14.00">c</text>
</g>
<!-- z1 -->
<g id="node5" class="node">
<title>z1</title>
<ellipse fill="none" stroke="black" cx="247.04" cy="-123.45" rx="18.7" ry="18.7"/>
<text text-anchor="middle" x="247.04" y="-119.75" font-family="Times,serif" font-size="14.00">z1</text>
</g>
<!-- z0&#45;&gt;z1 -->
<g id="edge5" class="edge">
<title>z0&#45;&gt;z1</title>
<path fill="none" stroke="black" d="M177.04,-118.61C184.09,-121.72 192.56,-124.89 200.59,-126.45 206.22,-127.54 212.31,-127.77 218.14,-127.54"/>
<polygon fill="black" stroke="black" points="218.53,-131.02 228.21,-126.72 217.96,-124.05 218.53,-131.02"/>
<text text-anchor="middle" x="204.09" y="-130.25" font-family="Times,serif" font-size="14.00">b</text>
</g>
<!-- w0 -->
<g id="node7" class="node">
<title>w0</title>
<ellipse fill="none" stroke="black" cx="247.04" cy="-52.45" rx="21.4" ry="21.4"/>
<text text-anchor="middle" x="247.04" y="-48.75" font-family="Times,serif" font-size="14.00">w0</text>
</g>
<!-- z0&#45;&gt;w0 -->
<g id="edge6" class="edge">
<title>z0&#45;&gt;w0</title>
<path fill="none" stroke="black" d="M176.08,-100.08C188.36,-91.71 205.92,-79.76 220.37,-69.92"/>
<polygon fill="black" stroke="black" points="222.59,-72.64 228.89,-64.12 218.65,-66.86 222.59,-72.64"/>
<text text-anchor="middle" x="204.09" y="-86.25" font-family="Times,serif" font-size="14.00">a</text>
</g>
<!-- z1&#45;&gt;z0 -->
<g id="edge8" class="edge">
<title>z1&#45;&gt;z0</title>
<path fill="none" stroke="black" d="M230.02,-115.12C223.29,-112.06 215.25,-108.98 207.59,-107.45 201.56,-106.24 195.02,-106.01 188.79,-106.28"/>
<polygon fill="black" stroke="black" points="188.42,-102.8 178.75,-107.13 189.01,-109.78 188.42,-102.8"/>
<text text-anchor="middle" x="204.09" y="-111.25" font-family="Times,serif" font-size="14.00">c</text>
</g>
<!-- z2 -->
<g id="node6" class="node">
<title>z2</title>
<ellipse fill="none" stroke="black" cx="332.94" cy="-157.45" rx="18.7" ry="18.7"/>
<text text-anchor="middle" x="332.94" y="-153.75" font-family="Times,serif" font-size="14.00">z2</text>
</g>
<!-- z1&#45;&gt;z2 -->
<g id="edge7" class="edge">
<title>z1&#45;&gt;z2</title>
<path fill="none" stroke="black" d="M265.02,-130.33C276.69,-135.06 292.43,-141.44 305.7,-146.82"/>
<polygon fill="black" stroke="black" points="304.69,-150.18 315.27,-150.69 307.32,-143.69 304.69,-150.18"/>
<text text-anchor="middle" x="289.99" y="-145.25" font-family="Times,serif" font-size="14.00">b</text>
</g>
<!-- z2&#45;&gt;z0 -->
<g id="edge9" class="edge">
<title>z2&#45;&gt;z0</title>
<path fill="none" stroke="black" d="M314.19,-159.88C287.8,-162.63 237.38,-164.54 200.59,-145.45 193.52,-141.78 186.69,-136.59 180.73,-131.32"/>
<polygon fill="black" stroke="black" points="182.9,-128.55 173.23,-124.23 178.1,-133.64 182.9,-128.55"/>
<text text-anchor="middle" x="247.04" y="-164.25" font-family="Times,serif" font-size="14.00">b</text>
</g>
<!-- w0&#45;&gt;m0 -->
<g id="edge11" class="edge">
<title>w0&#45;&gt;m0</title>
<path fill="none" stroke="black" d="M225.44,-51.93C202.81,-52.11 165.88,-54.64 137.1,-67.45 120.83,-74.69 105.41,-86.99 93.32,-98.4"/>
<polygon fill="black" stroke="black" points="90.56,-96.2 85.88,-105.71 95.46,-101.2 90.56,-96.2"/>
<text text-anchor="middle" x="159.84" y="-71.25" font-family="Times,serif" font-size="14.00">ε</text>
</g>
<!-- w1 -->
<g id="node8" class="node">
<title>w1</title>
<ellipse fill="none" stroke="black" cx="332.94" cy="-21.45" rx="21.4" ry="21.4"/>
<text text-anchor="middle" x="332.94" y="-17.75" font-family="Times,serif" font-size="14.00">w1</text>
</g>
<!-- w0&#45;&gt;w1 -->
<g id="edge10" class="edge">
<title>w0&#45;&gt;w1</title>
<path fill="none" stroke="black" d="M267.5,-45.26C278.09,-41.35 291.39,-36.43 303.16,-32.08"/>
<polygon fill="black" stroke="black" points="304.42,-35.35 312.58,-28.6 301.99,-28.78 304.42,-35.35"/>
<text text-anchor="middle" x="289.99" y="-42.25" font-family="Times,serif" font-size="14.00">b</text>
</g>
<!-- w2 -->
<g id="node9" class="node">
<title>w2</title>
<ellipse fill="none" stroke="black" cx="418.83" cy="-50.45" rx="21.4" ry="21.4"/>
<text text-anchor="middle" x="418.83" y="-46.75" font-family="Times,serif" font-size="14.00">w2</text>
</g>
<!-- w1&#45;&gt;w2 -->
<g id="edge12" class="edge">
<title>w1&#45;&gt;w2</title>
<path fill="none" stroke="black" d="M353.39,-28.17C363.8,-31.77 376.83,-36.28 388.45,-40.29"/>
<polygon fill="black" stroke="black" points="387.59,-43.7 398.19,-43.66 389.88,-37.08 387.59,-43.7"/>
<text text-anchor="middle" x="375.88" y="-41.25" font-family="Times,serif" font-size="14.00">c</text>
</g>
<!-- w2&#45;&gt;w0 -->
<g id="edge14" class="edge">
<title>w2&#45;&gt;w0</title>
<path fill="none" stroke="black" d="M397.54,-54.17C391.7,-55.09 385.31,-55.95 379.38,-56.45 338.24,-59.88 327.69,-60.12 286.49,-57.45 283.9,-57.28 281.22,-57.05 278.54,-56.78"/>
<polygon fill="black" stroke="black" points="278.68,-53.27 268.34,-55.59 277.87,-60.23 278.68,-53.27"/>
<text text-anchor="middle" x="332.94" y="-63.25" font-family="Times,serif" font-size="14.00">a</text>
</g>
<!-- w2&#45;&gt;w2 -->
<g id="edge13" class="edge">
<title>w2&#45;&gt;w2</title>
<path fill="none" stroke="black" d="M411.19,-70.74C410.13,-80.87 412.68,-89.9 418.83,-89.9 422.77,-89.9 425.24,-86.19 426.22,-80.87"/>
<polygon fill="black" stroke="black" points="429.72,-80.83 426.47,-70.74 422.72,-80.65 429.72,-80.83"/>
<text text-anchor="middle" x="418.83" y="-93.7" font-family="Times,serif" font-size="14.00">c</text>
</g>
</g>
</svg>
