<?xml version="1.0" encoding="UTF-8" standalone="no"?>
<!DOCTYPE svg PUBLIC "-//W3C//DTD SVG 1.1//EN"
 "http://www.w3.org/Graphics/SVG/1.1/DTD/svg11.dtd">
<!-- Generated by graphviz version 2.43.0 (0)
 -->
<!-- Title: Block Z: (bbb|bc)* Pages: 1 -->
<svg width="256pt" height="82pt"
 viewBox="0.00 0.00 255.69 81.70" xmlns="http://www.w3.org/2000/svg" xmlns:xlink="http://www.w3.org/1999/xlink">
<g id="graph0" class="graph" transform="scale(1 1) rotate(0) translate(4 77.7)">
<title>Block Z: (bbb|bc)*</title>
<polygon fill="white" stroke="transparent" points="-4,4 -4,-77.7 251.69,-77.7 251.69,4 -4,4"/>
<!-- start -->
<g id="node1" class="node">
<title>start</title>
<ellipse fill="black" stroke="black" cx="1.8" cy="-35.85" rx="1.8" ry="1.8"/>
</g>
<!-- z0 -->
<g id="node2" class="node">
<title>z0</title>
<ellipse fill="none" stroke="black" cx="63.45" cy="-35.85" rx="18.72" ry="18.72"/>
<ellipse fill="none" stroke="black" cx="63.45" cy="-35.85" rx="22.7" ry="22.7"/>
<text text-anchor="middle" x="63.45" y="-32.15" font-family="Times,serif" font-size="14.00">z0</text>
</g>
<!-- start&#45;&gt;z0 -->
<g id="edge1" class="edge">
<title>start&#45;&gt;z0</title>
<path fill="none" stroke="black" d="M3.84,-35.85C7.23,-35.85 18.5,-35.85 30.27,-35.85"/>
<polygon fill="black" stroke="black" points="30.54,-39.35 40.54,-35.85 30.54,-32.35 30.54,-39.35"/>
</g>
<!-- z1 -->
<g id="node3" class="node">
<title>z1</title>
<ellipse fill="none" stroke="black" cx="148.14" cy="-54.85" rx="18.7" ry="18.7"/>
<text text-anchor="middle" x="148.14" y="-51.15" font-family="Times,serif" font-size="14.00">z1</text>
</g>
<!-- z0&#45;&gt;z1 -->
<g id="edge2" class="edge">
<title>z0&#45;&gt;z1</title>
<path fill="none" stroke="black" d="M84.33,-45.24C90.59,-47.81 97.61,-50.31 104.3,-51.85 108.92,-52.91 113.89,-53.63 118.75,-54.11"/>
<polygon fill="black" stroke="black" points="118.81,-57.62 129.03,-54.83 119.3,-50.64 118.81,-57.62"/>
<text text-anchor="middle" x="107.8" y="-56.65" font-family="Times,serif" font-size="14.00">b</text>
</g>
<!-- z1&#45;&gt;z0 -->
<g id="edge4" class="edge">
<title>z1&#45;&gt;z0</title>
<path fill="none" stroke="black" d="M132.66,-43.44C126.45,-39.24 118.89,-34.99 111.3,-32.85 106.55,-31.51 101.42,-30.97 96.37,-30.93"/>
<polygon fill="black" stroke="black" points="96.03,-27.44 86.23,-31.45 96.39,-34.43 96.03,-27.44"/>
<text text-anchor="middle" x="107.8" y="-36.65" font-family="Times,serif" font-size="14.00">c</text>
</g>
<!-- z2 -->
<g id="node4" class="node">
<title>z2</title>
<ellipse fill="none" stroke="black" cx="228.84" cy="-18.85" rx="18.7" ry="18.7"/>
<text text-anchor="middle" x="228.84" y="-15.15" font-family="Times,serif" font-size="14.00">z2</text>
</g>
<!-- z1&#45;&gt;z2 -->
<g id="edge3" class="edge">
<title>z1&#45;&gt;z2</title>
<path fill="none" stroke="black" d="M165.83,-47.21C176.34,-42.41 190.11,-36.11 202.01,-30.67"/>
<polygon fill="black" stroke="black" points="203.81,-33.69 211.45,-26.35 200.9,-27.33 203.81,-33.69"/>
<text text-anchor="middle" x="188.49" y="-41.65" font-family="Times,serif" font-size="14.00">b</text>
</g>
<!-- z2&#45;&gt;z0 -->
<g id="edge5" class="edge">
<title>z2&#45;&gt;z0</title>
<path fill="none" stroke="black" d="M210.26,-15C190.44,-11.26 157.32,-6.83 129.3,-11.85 117.35,-13.99 104.73,-18.18 93.83,-22.47"/>
<polygon fill="black" stroke="black" points="92.28,-19.32 84.37,-26.38 94.95,-25.79 92.28,-19.32"/>
<text text-anchor="middle" x="148.14" y="-15.65" font-family="Times,serif" font-size="14.00">b</text>
</g>
</g>
</svg>
