<?xml version="1.0" encoding="UTF-8" standalone="no"?>
<!DOCTYPE svg PUBLIC "-//W3C//DTD SVG 1.1//EN"
 "http://www.w3.org/Graphics/SVG/1.1/DTD/svg11.dtd">
<!-- Generated by graphviz version 2.43.0 (0)
 -->
<!-- Title: DFA Pages: 1 -->
<svg width="643pt" height="610pt"
 viewBox="0.00 0.00 643.07 610.00" xmlns="http://www.w3.org/2000/svg" xmlns:xlink="http://www.w3.org/1999/xlink">
<g id="graph0" class="graph" transform="scale(1 1) rotate(0) translate(4 606)">
<title>DFA</title>
<polygon fill="white" stroke="transparent" points="-4,4 -4,-606 639.07,-606 639.07,4 -4,4"/>
<!-- start -->
<g id="node1" class="node">
<title>start</title>
<ellipse fill="black" stroke="black" cx="1.8" cy="-43" rx="1.8" ry="1.8"/>
</g>
<!-- Q1 -->
<g id="node3" class="node">
<title>Q1</title>
<ellipse fill="none" stroke="black" cx="66.05" cy="-43" rx="21.4" ry="21.4"/>
<ellipse fill="none" stroke="black" cx="66.05" cy="-43" rx="25.4" ry="25.4"/>
<text text-anchor="middle" x="66.05" y="-39.3" font-family="Times,serif" font-size="14.00">Q1</text>
</g>
<!-- start&#45;&gt;Q1 -->
<g id="edge1" class="edge">
<title>start&#45;&gt;Q1</title>
<path fill="none" stroke="black" d="M3.88,-43C7.34,-43 18.59,-43 30.53,-43"/>
<polygon fill="black" stroke="black" points="30.55,-46.5 40.55,-43 30.55,-39.5 30.55,-46.5"/>
</g>
<!-- Q0 -->
<g id="node2" class="node">
<title>Q0</title>
<ellipse fill="none" stroke="black" cx="513.18" cy="-288" rx="21.4" ry="21.4"/>
<ellipse fill="none" stroke="black" cx="513.18" cy="-288" rx="25.4" ry="25.4"/>
<text text-anchor="middle" x="513.18" y="-284.3" font-family="Times,serif" font-size="14.00">Q0</text>
</g>
<!-- Q2 -->
<g id="node4" class="node">
<title>Q2</title>
<ellipse fill="none" stroke="black" cx="155.94" cy="-158" rx="21.4" ry="21.4"/>
<text text-anchor="middle" x="155.94" y="-154.3" font-family="Times,serif" font-size="14.00">Q2</text>
</g>
<!-- Q0&#45;&gt;Q2 -->
<g id="edge3" class="edge">
<title>Q0&#45;&gt;Q2</title>
<path fill="none" stroke="black" d="M487.71,-287.44C471.4,-286.64 449.31,-284.75 428.98,-280.36"/>
<polygon fill="black" stroke="black" points="429.72,-276.94 419.18,-278 428.08,-283.75 429.72,-276.94"/>
<path fill="none" stroke="black" d="M417.18,-278C376.02,-262.41 387.18,-228.23 349.18,-206 292.77,-173 214.2,-162.54 177.44,-159.35"/>
<text text-anchor="middle" x="327.74" y="-209.8" font-family="Times,serif" font-size="14.00">b</text>
</g>
<!-- Q4 -->
<g id="node6" class="node">
<title>Q4</title>
<ellipse fill="none" stroke="black" cx="241.84" cy="-337" rx="21.4" ry="21.4"/>
<text text-anchor="middle" x="241.84" y="-333.3" font-family="Times,serif" font-size="14.00">Q4</text>
</g>
<!-- Q0&#45;&gt;Q4 -->
<g id="edge4" class="edge">
<title>Q0&#45;&gt;Q4</title>
<path fill="none" stroke="black" d="M417.18,-278C368.18,-259.95 377.9,-271.38 367.18,-275 345.64,-282.27 307.99,-332.08 285.79,-337"/>
<path fill="none" stroke="black" d="M283.79,-337C277.26,-338.44 270.01,-338.83 263.44,-338.74"/>
<text text-anchor="middle" x="370.68" y="-278.8" font-family="Times,serif" font-size="14.00">c</text>
</g>
<!-- Q12 -->
<g id="node14" class="node">
<title>Q12</title>
<ellipse fill="none" stroke="black" cx="418.18" cy="-392" rx="26" ry="26"/>
<text text-anchor="middle" x="418.18" y="-388.3" font-family="Times,serif" font-size="14.00">Q12</text>
</g>
<!-- Q0&#45;&gt;Q12 -->
<g id="edge2" class="edge">
<title>Q0&#45;&gt;Q12</title>
<path fill="none" stroke="black" d="M488.49,-295.17C479.29,-298.95 469.28,-304.4 462.18,-312 447.47,-327.73 454.51,-338.1 444.18,-357 443.07,-359.02 441.87,-361.07 440.61,-363.1"/>
<polygon fill="black" stroke="black" points="437.45,-361.54 434.84,-371.81 443.28,-365.4 437.45,-361.54"/>
<text text-anchor="middle" x="465.68" y="-315.8" font-family="Times,serif" font-size="14.00">a</text>
</g>
<!-- Q1&#45;&gt;Q2 -->
<g id="edge6" class="edge">
<title>Q1&#45;&gt;Q2</title>
<path fill="none" stroke="black" d="M82.16,-62.77C97,-82.19 119.69,-111.88 135.79,-132.94"/>
<polygon fill="black" stroke="black" points="133.18,-135.29 142.03,-141.1 138.74,-131.03 133.18,-135.29"/>
<text text-anchor="middle" x="113" y="-111.8" font-family="Times,serif" font-size="14.00">b</text>
</g>
<!-- Q6 -->
<g id="node8" class="node">
<title>Q6</title>
<ellipse fill="none" stroke="black" cx="613.62" cy="-349" rx="21.4" ry="21.4"/>
<text text-anchor="middle" x="613.62" y="-345.3" font-family="Times,serif" font-size="14.00">Q6</text>
</g>
<!-- Q1&#45;&gt;Q6 -->
<g id="edge5" class="edge">
<title>Q1&#45;&gt;Q6</title>
<path fill="none" stroke="black" d="M86.33,-27.23C103.32,-14.96 129.29,0 154.94,0 154.94,0 154.94,0 285.79,0 314.64,0 323.57,-0.72 349.18,-14 385.49,-32.82 378.5,-62.71 417.18,-76"/>
<path fill="none" stroke="black" d="M419.18,-76C471.55,-89.17 498.22,-59.81 539.18,-95 573.09,-124.14 597.92,-256.01 607.85,-317.39"/>
<polygon fill="black" stroke="black" points="604.46,-318.32 609.48,-327.65 611.37,-317.22 604.46,-318.32"/>
<text text-anchor="middle" x="327.74" y="-17.8" font-family="Times,serif" font-size="14.00">a,c</text>
</g>
<!-- Q2&#45;&gt;Q4 -->
<g id="edge9" class="edge">
<title>Q2&#45;&gt;Q4</title>
<path fill="none" stroke="black" d="M165.92,-177.16C180.71,-208.7 210.25,-271.74 227.49,-308.52"/>
<polygon fill="black" stroke="black" points="224.39,-310.14 231.8,-317.71 230.73,-307.17 224.39,-310.14"/>
<text text-anchor="middle" x="198.89" y="-256.8" font-family="Times,serif" font-size="14.00">c</text>
</g>
<!-- Q2&#45;&gt;Q6 -->
<g id="edge8" class="edge">
<title>Q2&#45;&gt;Q6</title>
<path fill="none" stroke="black" d="M174.43,-146.93C190.84,-137.26 216.46,-124.03 240.84,-119"/>
<path fill="none" stroke="black" d="M242.84,-119C316.91,-89.27 341.11,-51.87 417.18,-76"/>
<text text-anchor="middle" x="370.68" y="-72.8" font-family="Times,serif" font-size="14.00">b</text>
</g>
<!-- Q10 -->
<g id="node12" class="node">
<title>Q10</title>
<ellipse fill="none" stroke="black" cx="418.18" cy="-168" rx="26" ry="26"/>
<text text-anchor="middle" x="418.18" y="-164.3" font-family="Times,serif" font-size="14.00">Q10</text>
</g>
<!-- Q2&#45;&gt;Q10 -->
<g id="edge7" class="edge">
<title>Q2&#45;&gt;Q10</title>
<path fill="none" stroke="black" d="M242.84,-119C293.84,-108.75 351.73,-132.21 386.31,-150.09"/>
<polygon fill="black" stroke="black" points="384.95,-153.34 395.42,-154.96 388.25,-147.16 384.95,-153.34"/>
<text text-anchor="middle" x="284.79" y="-121.8" font-family="Times,serif" font-size="14.00">a</text>
</g>
<!-- Q3 -->
<g id="node5" class="node">
<title>Q3</title>
<ellipse fill="none" stroke="black" cx="327.74" cy="-408" rx="21.4" ry="21.4"/>
<text text-anchor="middle" x="327.74" y="-404.3" font-family="Times,serif" font-size="14.00">Q3</text>
</g>
<!-- Q3&#45;&gt;Q4 -->
<g id="edge12" class="edge">
<title>Q3&#45;&gt;Q4</title>
<path fill="none" stroke="black" d="M307.03,-400.79C298.59,-397.14 288.93,-392.16 281.29,-386 273.29,-379.56 265.93,-371.15 259.84,-363.12"/>
<polygon fill="black" stroke="black" points="262.67,-361.05 253.98,-354.99 256.99,-365.15 262.67,-361.05"/>
<text text-anchor="middle" x="284.79" y="-394.8" font-family="Times,serif" font-size="14.00">c</text>
</g>
<!-- Q7 -->
<g id="node9" class="node">
<title>Q7</title>
<ellipse fill="none" stroke="black" cx="418.18" cy="-508" rx="21.4" ry="21.4"/>
<text text-anchor="middle" x="418.18" y="-504.3" font-family="Times,serif" font-size="14.00">Q7</text>
</g>
<!-- Q3&#45;&gt;Q7 -->
<g id="edge11" class="edge">
<title>Q3&#45;&gt;Q7</title>
<path fill="none" stroke="black" d="M338.59,-426.68C345.63,-439.11 355.84,-455.4 367.18,-468 374.44,-476.06 383.42,-483.78 391.76,-490.25"/>
<polygon fill="black" stroke="black" points="389.69,-493.08 399.8,-496.27 393.89,-487.48 389.69,-493.08"/>
<text text-anchor="middle" x="370.68" y="-477.8" font-family="Times,serif" font-size="14.00">b</text>
</g>
<!-- Q3&#45;&gt;Q12 -->
<g id="edge10" class="edge">
<title>Q3&#45;&gt;Q12</title>
<path fill="none" stroke="black" d="M349.25,-404.29C359.1,-402.51 371.17,-400.32 382.39,-398.29"/>
<polygon fill="black" stroke="black" points="383.15,-401.71 392.37,-396.49 381.91,-394.82 383.15,-401.71"/>
<text text-anchor="middle" x="370.68" y="-404.8" font-family="Times,serif" font-size="14.00">a</text>
</g>
<!-- Q4&#45;&gt;Q3 -->
<g id="edge13" class="edge">
<title>Q4&#45;&gt;Q3</title>
<path fill="none" stroke="black" d="M260.79,-347.49C269.44,-352.87 279.76,-359.81 288.29,-367 294.58,-372.31 300.91,-378.57 306.55,-384.58"/>
<polygon fill="black" stroke="black" points="303.97,-386.94 313.29,-391.97 309.14,-382.22 303.97,-386.94"/>
<text text-anchor="middle" x="284.79" y="-370.8" font-family="Times,serif" font-size="14.00">a</text>
</g>
<!-- Q4&#45;&gt;Q6 -->
<g id="edge15" class="edge">
<title>Q4&#45;&gt;Q6</title>
<path fill="none" stroke="black" d="M245.34,-358.31C253.01,-418.77 278.67,-587 326.74,-587 326.74,-587 326.74,-587 466.68,-587 511.32,-587 531.5,-594.87 564.68,-565"/>
<text text-anchor="middle" x="418.18" y="-590.8" font-family="Times,serif" font-size="14.00">c</text>
</g>
<!-- Q8 -->
<g id="node10" class="node">
<title>Q8</title>
<ellipse fill="none" stroke="black" cx="327.74" cy="-251" rx="21.4" ry="21.4"/>
<text text-anchor="middle" x="327.74" y="-247.3" font-family="Times,serif" font-size="14.00">Q8</text>
</g>
<!-- Q4&#45;&gt;Q8 -->
<g id="edge14" class="edge">
<title>Q4&#45;&gt;Q8</title>
<path fill="none" stroke="black" d="M257.45,-322.02C270.49,-308.66 289.76,-288.91 304.67,-273.62"/>
<polygon fill="black" stroke="black" points="307.53,-275.7 312.01,-266.1 302.52,-270.81 307.53,-275.7"/>
<text text-anchor="middle" x="284.79" y="-300.8" font-family="Times,serif" font-size="14.00">b</text>
</g>
<!-- Q5 -->
<g id="node7" class="node">
<title>Q5</title>
<ellipse fill="none" stroke="black" cx="513.18" cy="-454" rx="21.4" ry="21.4"/>
<text text-anchor="middle" x="513.18" y="-450.3" font-family="Times,serif" font-size="14.00">Q5</text>
</g>
<!-- Q5&#45;&gt;Q3 -->
<g id="edge16" class="edge">
<title>Q5&#45;&gt;Q3</title>
<path fill="none" stroke="black" d="M491.81,-450C463.58,-444.27 411.07,-432.99 367.18,-420 364.36,-419.16 361.42,-418.28 358.48,-417.38"/>
<polygon fill="black" stroke="black" points="359.25,-413.95 348.66,-414.34 357.18,-420.64 359.25,-413.95"/>
<text text-anchor="middle" x="418.18" y="-443.8" font-family="Times,serif" font-size="14.00">a</text>
</g>
<!-- Q5&#45;&gt;Q5 -->
<g id="edge18" class="edge">
<title>Q5&#45;&gt;Q5</title>
<path fill="none" stroke="black" d="M504.86,-473.89C503.58,-484.18 506.35,-493.45 513.18,-493.45 517.55,-493.45 520.26,-489.64 521.31,-484.2"/>
<polygon fill="black" stroke="black" points="524.81,-483.95 521.5,-473.89 517.82,-483.83 524.81,-483.95"/>
<text text-anchor="middle" x="513.18" y="-497.25" font-family="Times,serif" font-size="14.00">c</text>
</g>
<!-- Q5&#45;&gt;Q6 -->
<g id="edge17" class="edge">
<title>Q5&#45;&gt;Q6</title>
<path fill="none" stroke="black" d="M528.7,-438.51C545.23,-420.88 572.37,-391.93 591.3,-371.74"/>
<polygon fill="black" stroke="black" points="594.07,-373.9 598.36,-364.22 588.97,-369.12 594.07,-373.9"/>
<text text-anchor="middle" x="565.68" y="-411.8" font-family="Times,serif" font-size="14.00">b</text>
</g>
<!-- Q6&#45;&gt;Q6 -->
<g id="edge19" class="edge">
<title>Q6&#45;&gt;Q6</title>
<path fill="none" stroke="black" d="M605.3,-368.89C604.02,-379.18 606.8,-388.45 613.62,-388.45 618,-388.45 620.71,-384.64 621.75,-379.2"/>
<polygon fill="black" stroke="black" points="625.26,-378.95 621.95,-368.89 618.26,-378.83 625.26,-378.95"/>
<text text-anchor="middle" x="613.62" y="-392.25" font-family="Times,serif" font-size="14.00">a,b,c</text>
</g>
<!-- Q7&#45;&gt;Q5 -->
<g id="edge21" class="edge">
<title>Q7&#45;&gt;Q5</title>
<path fill="none" stroke="black" d="M437.11,-497.59C450.88,-489.59 470.1,-478.43 485.64,-469.41"/>
<polygon fill="black" stroke="black" points="487.41,-472.43 494.3,-464.38 483.9,-466.37 487.41,-472.43"/>
<text text-anchor="middle" x="465.68" y="-485.8" font-family="Times,serif" font-size="14.00">c</text>
</g>
<!-- Q7&#45;&gt;Q6 -->
<g id="edge20" class="edge">
<title>Q7&#45;&gt;Q6</title>
<path fill="none" stroke="black" d="M438.39,-516.02C477.32,-532.22 562.08,-567.1 564.68,-565"/>
<path fill="none" stroke="black" d="M566.68,-565C593.65,-540.71 605.86,-434.16 610.39,-380.34"/>
<polygon fill="black" stroke="black" points="613.88,-380.57 611.19,-370.32 606.9,-380.01 613.88,-380.57"/>
<text text-anchor="middle" x="513.18" y="-558.8" font-family="Times,serif" font-size="14.00">a,b</text>
</g>
<!-- Q8&#45;&gt;Q4 -->
<g id="edge24" class="edge">
<title>Q8&#45;&gt;Q4</title>
<path fill="none" stroke="black" d="M307.11,-257.58C298.49,-261.16 288.67,-266.26 281.29,-273 270.64,-282.73 261.99,-296.09 255.6,-308.09"/>
<polygon fill="black" stroke="black" points="252.33,-306.81 250.98,-317.32 258.59,-309.95 252.33,-306.81"/>
<text text-anchor="middle" x="284.79" y="-276.8" font-family="Times,serif" font-size="14.00">c</text>
</g>
<!-- Q8&#45;&gt;Q6 -->
<g id="edge22" class="edge">
<title>Q8&#45;&gt;Q6</title>
<path fill="none" stroke="black" d="M347.35,-242.16C379.98,-227.18 446.22,-199.12 469.18,-207 478.77,-210.29 478.89,-215.17 487.18,-221 509.56,-236.75 522.97,-231.94 539.18,-254 565.06,-289.23 524.07,-332.81 564.68,-349"/>
<text text-anchor="middle" x="465.68" y="-210.8" font-family="Times,serif" font-size="14.00">a</text>
</g>
<!-- Q9 -->
<g id="node11" class="node">
<title>Q9</title>
<ellipse fill="none" stroke="black" cx="418.18" cy="-327" rx="21.4" ry="21.4"/>
<text text-anchor="middle" x="418.18" y="-323.3" font-family="Times,serif" font-size="14.00">Q9</text>
</g>
<!-- Q8&#45;&gt;Q9 -->
<g id="edge23" class="edge">
<title>Q8&#45;&gt;Q9</title>
<path fill="none" stroke="black" d="M341.71,-267.45C348.77,-275.87 357.94,-286.01 367.18,-294 374.39,-300.22 382.84,-306.22 390.71,-311.35"/>
<polygon fill="black" stroke="black" points="388.94,-314.37 399.27,-316.74 392.68,-308.45 388.94,-314.37"/>
<text text-anchor="middle" x="370.68" y="-303.8" font-family="Times,serif" font-size="14.00">b</text>
</g>
<!-- Q9&#45;&gt;Q4 -->
<g id="edge26" class="edge">
<title>Q9&#45;&gt;Q4</title>
<path fill="none" stroke="black" d="M396.58,-327.53C372.84,-328.36 332.4,-330.43 295.95,-335.49"/>
<polygon fill="black" stroke="black" points="295.17,-332.07 285.79,-337 296.19,-338.99 295.17,-332.07"/>
<text text-anchor="middle" x="327.74" y="-337.8" font-family="Times,serif" font-size="14.00">b</text>
</g>
<!-- Q9&#45;&gt;Q6 -->
<g id="edge25" class="edge">
<title>Q9&#45;&gt;Q6</title>
<path fill="none" stroke="black" d="M433.02,-342.93C440.73,-350.58 451.02,-358.94 462.18,-363 483.79,-370.85 543.54,-339.96 564.68,-349"/>
<text text-anchor="middle" x="513.18" y="-366.8" font-family="Times,serif" font-size="14.00">a,c</text>
</g>
<!-- Q10&#45;&gt;Q0 -->
<g id="edge29" class="edge">
<title>Q10&#45;&gt;Q0</title>
<path fill="none" stroke="black" d="M434.1,-188.55C442.29,-199.71 452.67,-213.7 462.18,-226 471.08,-237.51 481.11,-250.02 489.83,-260.78"/>
<polygon fill="black" stroke="black" points="487.18,-263.07 496.21,-268.62 492.61,-258.65 487.18,-263.07"/>
<text text-anchor="middle" x="465.68" y="-238.8" font-family="Times,serif" font-size="14.00">c</text>
</g>
<!-- Q10&#45;&gt;Q6 -->
<g id="edge28" class="edge">
<title>Q10&#45;&gt;Q6</title>
<path fill="none" stroke="black" d="M444.38,-168.68C471.9,-170.85 515.25,-178.74 539.18,-206 581.76,-254.52 505.12,-324.08 564.68,-349"/>
<path fill="none" stroke="black" d="M566.68,-349C571.55,-350.94 576.96,-351.89 582.3,-352.22"/>
<polygon fill="black" stroke="black" points="582.34,-355.72 592.33,-352.2 582.33,-348.72 582.34,-355.72"/>
<text text-anchor="middle" x="513.18" y="-209.8" font-family="Times,serif" font-size="14.00">b</text>
</g>
<!-- Q11 -->
<g id="node13" class="node">
<title>Q11</title>
<ellipse fill="none" stroke="black" cx="513.18" cy="-130" rx="26" ry="26"/>
<text text-anchor="middle" x="513.18" y="-126.3" font-family="Times,serif" font-size="14.00">Q11</text>
</g>
<!-- Q10&#45;&gt;Q11 -->
<g id="edge27" class="edge">
<title>Q10&#45;&gt;Q11</title>
<path fill="none" stroke="black" d="M441.77,-157.03C448.31,-153.98 455.48,-150.76 462.18,-148 467.46,-145.83 473.11,-143.65 478.64,-141.61"/>
<polygon fill="black" stroke="black" points="480.15,-144.78 488.36,-138.08 477.76,-138.2 480.15,-144.78"/>
<text text-anchor="middle" x="465.68" y="-151.8" font-family="Times,serif" font-size="14.00">a</text>
</g>
<!-- Q11&#45;&gt;Q1 -->
<g id="edge31" class="edge">
<title>Q11&#45;&gt;Q1</title>
<path fill="none" stroke="black" d="M487.05,-127.09C460.78,-122.9 419.64,-112.97 392.18,-90 379.37,-79.28 387.12,-67.57 374.18,-57 357.82,-43.63 349.87,-43 328.74,-43 154.94,-43 154.94,-43 154.94,-43 137.42,-43 117.93,-43 101.76,-43"/>
<polygon fill="black" stroke="black" points="101.67,-39.5 91.67,-43 101.67,-46.5 101.67,-39.5"/>
<text text-anchor="middle" x="284.79" y="-46.8" font-family="Times,serif" font-size="14.00">c</text>
</g>
<!-- Q11&#45;&gt;Q6 -->
<g id="edge30" class="edge">
<title>Q11&#45;&gt;Q6</title>
<path fill="none" stroke="black" d="M528.36,-151.2C532.09,-157.16 535.96,-163.73 539.18,-170 565.31,-220.95 589.21,-283.42 602.26,-319.47"/>
<polygon fill="black" stroke="black" points="598.97,-320.68 605.65,-328.91 605.56,-318.31 598.97,-320.68"/>
<text text-anchor="middle" x="565.68" y="-246.8" font-family="Times,serif" font-size="14.00">a,b</text>
</g>
<!-- Q12&#45;&gt;Q0 -->
<g id="edge33" class="edge">
<title>Q12&#45;&gt;Q0</title>
<path fill="none" stroke="black" d="M436.24,-372.92C450.88,-356.55 472.14,-332.78 488.44,-314.54"/>
<polygon fill="black" stroke="black" points="491.49,-316.39 495.54,-306.6 486.27,-311.73 491.49,-316.39"/>
<text text-anchor="middle" x="465.68" y="-347.8" font-family="Times,serif" font-size="14.00">c</text>
</g>
<!-- Q12&#45;&gt;Q6 -->
<g id="edge32" class="edge">
<title>Q12&#45;&gt;Q6</title>
<path fill="none" stroke="black" d="M444.14,-394.12C469.52,-395.17 509.27,-393.68 539.18,-378 554.38,-370.03 548.79,-342.51 564.68,-349"/>
<text text-anchor="middle" x="513.18" y="-396.8" font-family="Times,serif" font-size="14.00">a,b</text>
</g>
</g>
</svg>
