<?xml version="1.0" encoding="UTF-8" standalone="no"?>
<!DOCTYPE svg PUBLIC "-//W3C//DTD SVG 1.1//EN"
 "http://www.w3.org/Graphics/SVG/1.1/DTD/svg11.dtd">
<!-- Generated by graphviz version 2.43.0 (0)
 -->
<!-- Title: NFA (12 states, no ε) Pages: 1 -->
<svg width="564pt" height="427pt"
 viewBox="0.00 0.00 564.27 427.45" xmlns="http://www.w3.org/2000/svg" xmlns:xlink="http://www.w3.org/1999/xlink">
<g id="graph0" class="graph" transform="scale(1 1) rotate(0) translate(4 423.45)">
<title>NFA (12 states, no ε)</title>
<polygon fill="white" stroke="transparent" points="-4,4 -4,-423.45 560.27,-423.45 560.27,4 -4,4"/>
<!-- start -->
<g id="node1" class="node">
<title>start</title>
<ellipse fill="black" stroke="black" cx="1.8" cy="-37" rx="1.8" ry="1.8"/>
</g>
<!-- Q1 -->
<g id="node3" class="node">
<title>Q1</title>
<ellipse fill="none" stroke="black" cx="66.05" cy="-37" rx="21.4" ry="21.4"/>
<ellipse fill="none" stroke="black" cx="66.05" cy="-37" rx="25.4" ry="25.4"/>
<text text-anchor="middle" x="66.05" y="-33.3" font-family="Times,serif" font-size="14.00">Q1</text>
</g>
<!-- start&#45;&gt;Q1 -->
<g id="edge1" class="edge">
<title>start&#45;&gt;Q1</title>
<path fill="none" stroke="black" d="M3.88,-37C7.34,-37 18.59,-37 30.53,-37"/>
<polygon fill="black" stroke="black" points="30.55,-40.5 40.55,-37 30.55,-33.5 30.55,-40.5"/>
</g>
<!-- Q0 -->
<g id="node2" class="node">
<title>Q0</title>
<ellipse fill="none" stroke="black" cx="530.83" cy="-180" rx="21.4" ry="21.4"/>
<ellipse fill="none" stroke="black" cx="530.83" cy="-180" rx="25.4" ry="25.4"/>
<text text-anchor="middle" x="530.83" y="-176.3" font-family="Times,serif" font-size="14.00">Q0</text>
</g>
<!-- Q2 -->
<g id="node4" class="node">
<title>Q2</title>
<ellipse fill="none" stroke="black" cx="155.94" cy="-115" rx="21.4" ry="21.4"/>
<text text-anchor="middle" x="155.94" y="-111.3" font-family="Times,serif" font-size="14.00">Q2</text>
</g>
<!-- Q0&#45;&gt;Q2 -->
<g id="edge3" class="edge">
<title>Q0&#45;&gt;Q2</title>
<path fill="none" stroke="black" d="M506.1,-173.6C490.16,-169.73 468.33,-165.23 447.5,-163.57"/>
<polygon fill="black" stroke="black" points="447.56,-160.07 437.38,-163 447.17,-167.06 447.56,-160.07"/>
<path fill="none" stroke="black" d="M435.38,-163C338.49,-147.59 223.05,-126.96 177.18,-118.67"/>
<text text-anchor="middle" x="341.39" y="-154.8" font-family="Times,serif" font-size="14.00">b</text>
</g>
<!-- Q4 -->
<g id="node6" class="node">
<title>Q4</title>
<ellipse fill="none" stroke="black" cx="246.39" cy="-273" rx="21.4" ry="21.4"/>
<text text-anchor="middle" x="246.39" y="-269.3" font-family="Times,serif" font-size="14.00">Q4</text>
</g>
<!-- Q0&#45;&gt;Q4 -->
<g id="edge4" class="edge">
<title>Q0&#45;&gt;Q4</title>
<path fill="none" stroke="black" d="M435.38,-163C361.55,-150.54 289.47,-223.16 260.6,-256.7"/>
<text text-anchor="middle" x="388.88" y="-168.8" font-family="Times,serif" font-size="14.00">c</text>
</g>
<!-- Q12 -->
<g id="node13" class="node">
<title>Q12</title>
<ellipse fill="none" stroke="black" cx="436.38" cy="-217" rx="26" ry="26"/>
<text text-anchor="middle" x="436.38" y="-213.3" font-family="Times,serif" font-size="14.00">Q12</text>
</g>
<!-- Q0&#45;&gt;Q12 -->
<g id="edge2" class="edge">
<title>Q0&#45;&gt;Q12</title>
<path fill="none" stroke="black" d="M511.74,-197.08C504.66,-202.79 496.15,-208.57 487.38,-212 482.75,-213.81 477.7,-215.06 472.65,-215.91"/>
<polygon fill="black" stroke="black" points="471.93,-212.48 462.42,-217.15 472.77,-219.43 471.93,-212.48"/>
<text text-anchor="middle" x="483.88" y="-217.8" font-family="Times,serif" font-size="14.00">a</text>
</g>
<!-- Q1&#45;&gt;Q2 -->
<g id="edge5" class="edge">
<title>Q1&#45;&gt;Q2</title>
<path fill="none" stroke="black" d="M85.69,-53.54C99.12,-65.46 117.35,-81.63 131.73,-94.4"/>
<polygon fill="black" stroke="black" points="129.47,-97.07 139.27,-101.09 134.11,-91.83 129.47,-97.07"/>
<text text-anchor="middle" x="113" y="-83.8" font-family="Times,serif" font-size="14.00">b</text>
</g>
<!-- Q2&#45;&gt;Q4 -->
<g id="edge7" class="edge">
<title>Q2&#45;&gt;Q4</title>
<path fill="none" stroke="black" d="M167.26,-133.43C182.77,-161.14 212.19,-213.7 230.17,-245.81"/>
<polygon fill="black" stroke="black" points="227.2,-247.67 235.14,-254.68 233.31,-244.25 227.2,-247.67"/>
<text text-anchor="middle" x="198.89" y="-197.8" font-family="Times,serif" font-size="14.00">c</text>
</g>
<!-- Q10 -->
<g id="node11" class="node">
<title>Q10</title>
<ellipse fill="none" stroke="black" cx="246.39" cy="-76" rx="26" ry="26"/>
<text text-anchor="middle" x="246.39" y="-72.3" font-family="Times,serif" font-size="14.00">Q10</text>
</g>
<!-- Q2&#45;&gt;Q10 -->
<g id="edge6" class="edge">
<title>Q2&#45;&gt;Q10</title>
<path fill="none" stroke="black" d="M176.14,-106.54C186.8,-101.83 200.36,-95.85 212.65,-90.44"/>
<polygon fill="black" stroke="black" points="214.41,-93.48 222.15,-86.25 211.59,-87.08 214.41,-93.48"/>
<text text-anchor="middle" x="198.89" y="-100.8" font-family="Times,serif" font-size="14.00">a</text>
</g>
<!-- Q3 -->
<g id="node5" class="node">
<title>Q3</title>
<ellipse fill="none" stroke="black" cx="341.39" cy="-273" rx="21.4" ry="21.4"/>
<text text-anchor="middle" x="341.39" y="-269.3" font-family="Times,serif" font-size="14.00">Q3</text>
</g>
<!-- Q3&#45;&gt;Q4 -->
<g id="edge10" class="edge">
<title>Q3&#45;&gt;Q4</title>
<path fill="none" stroke="black" d="M327.01,-257.02C319.28,-249.06 308.84,-240.25 297.39,-236 285.84,-231.71 274.66,-238.59 265.81,-247.54"/>
<polygon fill="black" stroke="black" points="262.93,-245.51 258.96,-255.34 268.19,-250.13 262.93,-245.51"/>
<text text-anchor="middle" x="293.89" y="-239.8" font-family="Times,serif" font-size="14.00">c</text>
</g>
<!-- Q7 -->
<g id="node8" class="node">
<title>Q7</title>
<ellipse fill="none" stroke="black" cx="436.38" cy="-282" rx="21.4" ry="21.4"/>
<text text-anchor="middle" x="436.38" y="-278.3" font-family="Times,serif" font-size="14.00">Q7</text>
</g>
<!-- Q3&#45;&gt;Q7 -->
<g id="edge9" class="edge">
<title>Q3&#45;&gt;Q7</title>
<path fill="none" stroke="black" d="M363.02,-275C375.3,-276.18 391.11,-277.71 404.82,-279.04"/>
<polygon fill="black" stroke="black" points="404.51,-282.53 414.8,-280.01 405.18,-275.56 404.51,-282.53"/>
<text text-anchor="middle" x="388.88" y="-280.8" font-family="Times,serif" font-size="14.00">b</text>
</g>
<!-- Q3&#45;&gt;Q12 -->
<g id="edge8" class="edge">
<title>Q3&#45;&gt;Q12</title>
<path fill="none" stroke="black" d="M360.32,-262.2C372.9,-254.62 390.05,-244.29 404.78,-235.42"/>
<polygon fill="black" stroke="black" points="406.82,-238.28 413.58,-230.13 403.21,-232.29 406.82,-238.28"/>
<text text-anchor="middle" x="388.88" y="-249.8" font-family="Times,serif" font-size="14.00">a</text>
</g>
<!-- Q4&#45;&gt;Q3 -->
<g id="edge11" class="edge">
<title>Q4&#45;&gt;Q3</title>
<path fill="none" stroke="black" d="M268.03,-273C280.19,-273 295.81,-273 309.42,-273"/>
<polygon fill="black" stroke="black" points="309.8,-276.5 319.8,-273 309.8,-269.5 309.8,-276.5"/>
<text text-anchor="middle" x="293.89" y="-276.8" font-family="Times,serif" font-size="14.00">a</text>
</g>
<!-- Q8 -->
<g id="node9" class="node">
<title>Q8</title>
<ellipse fill="none" stroke="black" cx="341.39" cy="-345" rx="21.4" ry="21.4"/>
<text text-anchor="middle" x="341.39" y="-341.3" font-family="Times,serif" font-size="14.00">Q8</text>
</g>
<!-- Q4&#45;&gt;Q8 -->
<g id="edge12" class="edge">
<title>Q4&#45;&gt;Q8</title>
<path fill="none" stroke="black" d="M264.02,-285.87C278.43,-297.03 299.49,-313.33 315.84,-325.99"/>
<polygon fill="black" stroke="black" points="313.85,-328.88 323.9,-332.24 318.14,-323.35 313.85,-328.88"/>
<text text-anchor="middle" x="293.89" y="-314.8" font-family="Times,serif" font-size="14.00">b</text>
</g>
<!-- Q5 -->
<g id="node7" class="node">
<title>Q5</title>
<ellipse fill="none" stroke="black" cx="530.83" cy="-317" rx="21.4" ry="21.4"/>
<text text-anchor="middle" x="530.83" y="-313.3" font-family="Times,serif" font-size="14.00">Q5</text>
</g>
<!-- Q5&#45;&gt;Q3 -->
<g id="edge13" class="edge">
<title>Q5&#45;&gt;Q3</title>
<path fill="none" stroke="black" d="M509.39,-319.37C485.14,-321.45 443.78,-322.7 410.38,-312 395.26,-307.15 379.8,-298.62 367.45,-290.77"/>
<polygon fill="black" stroke="black" points="369.33,-287.82 359.05,-285.24 365.48,-293.66 369.33,-287.82"/>
<text text-anchor="middle" x="436.38" y="-323.8" font-family="Times,serif" font-size="14.00">a</text>
</g>
<!-- Q5&#45;&gt;Q5 -->
<g id="edge14" class="edge">
<title>Q5&#45;&gt;Q5</title>
<path fill="none" stroke="black" d="M522.5,-336.89C521.22,-347.17 524,-356.45 530.83,-356.45 535.2,-356.45 537.91,-352.64 538.96,-347.2"/>
<polygon fill="black" stroke="black" points="542.46,-346.95 539.15,-336.89 535.46,-346.82 542.46,-346.95"/>
<text text-anchor="middle" x="530.83" y="-360.25" font-family="Times,serif" font-size="14.00">c</text>
</g>
<!-- Q7&#45;&gt;Q5 -->
<g id="edge15" class="edge">
<title>Q7&#45;&gt;Q5</title>
<path fill="none" stroke="black" d="M456.99,-289.42C469.82,-294.28 486.8,-300.71 501.14,-306.14"/>
<polygon fill="black" stroke="black" points="499.98,-309.44 510.57,-309.71 502.45,-302.89 499.98,-309.44"/>
<text text-anchor="middle" x="483.88" y="-303.8" font-family="Times,serif" font-size="14.00">c</text>
</g>
<!-- Q8&#45;&gt;Q4 -->
<g id="edge17" class="edge">
<title>Q8&#45;&gt;Q4</title>
<path fill="none" stroke="black" d="M320.18,-340.47C310.55,-337.66 299.24,-333.34 290.39,-327 280.14,-319.65 271.06,-309.23 263.91,-299.49"/>
<polygon fill="black" stroke="black" points="266.73,-297.42 258.14,-291.21 260.98,-301.42 266.73,-297.42"/>
<text text-anchor="middle" x="293.89" y="-333.8" font-family="Times,serif" font-size="14.00">c</text>
</g>
<!-- Q9 -->
<g id="node10" class="node">
<title>Q9</title>
<ellipse fill="none" stroke="black" cx="436.38" cy="-398" rx="21.4" ry="21.4"/>
<text text-anchor="middle" x="436.38" y="-394.3" font-family="Times,serif" font-size="14.00">Q9</text>
</g>
<!-- Q8&#45;&gt;Q9 -->
<g id="edge16" class="edge">
<title>Q8&#45;&gt;Q9</title>
<path fill="none" stroke="black" d="M360.48,-355.04C369.99,-360.34 381.84,-366.98 392.38,-373 397.67,-376.01 403.3,-379.26 408.69,-382.39"/>
<polygon fill="black" stroke="black" points="407.02,-385.47 417.43,-387.47 410.54,-379.42 407.02,-385.47"/>
<text text-anchor="middle" x="388.88" y="-376.8" font-family="Times,serif" font-size="14.00">b</text>
</g>
<!-- Q9&#45;&gt;Q4 -->
<g id="edge18" class="edge">
<title>Q9&#45;&gt;Q4</title>
<path fill="none" stroke="black" d="M414.58,-397.78C389.6,-396.7 347.08,-392.2 315.39,-375 287.11,-359.65 268.52,-326.86 258.03,-302.58"/>
<polygon fill="black" stroke="black" points="261.18,-301.03 254.16,-293.1 254.7,-303.68 261.18,-301.03"/>
<text text-anchor="middle" x="341.39" y="-395.8" font-family="Times,serif" font-size="14.00">b</text>
</g>
<!-- Q10&#45;&gt;Q0 -->
<g id="edge20" class="edge">
<title>Q10&#45;&gt;Q0</title>
<path fill="none" stroke="black" d="M272.57,-78.05C301.93,-80.97 351.64,-87.53 392.38,-101 437.3,-115.85 447.03,-124.3 487.38,-149 492.15,-151.92 497.06,-155.21 501.78,-158.54"/>
<polygon fill="black" stroke="black" points="499.84,-161.45 509.99,-164.48 503.95,-155.78 499.84,-161.45"/>
<text text-anchor="middle" x="388.88" y="-104.8" font-family="Times,serif" font-size="14.00">c</text>
</g>
<!-- Q11 -->
<g id="node12" class="node">
<title>Q11</title>
<ellipse fill="none" stroke="black" cx="341.39" cy="-26" rx="26" ry="26"/>
<text text-anchor="middle" x="341.39" y="-22.3" font-family="Times,serif" font-size="14.00">Q11</text>
</g>
<!-- Q10&#45;&gt;Q11 -->
<g id="edge19" class="edge">
<title>Q10&#45;&gt;Q11</title>
<path fill="none" stroke="black" d="M269.9,-63.89C281.67,-57.57 296.25,-49.73 309.1,-42.82"/>
<polygon fill="black" stroke="black" points="310.93,-45.81 318.08,-37.99 307.62,-39.64 310.93,-45.81"/>
<text text-anchor="middle" x="293.89" y="-55.8" font-family="Times,serif" font-size="14.00">a</text>
</g>
<!-- Q11&#45;&gt;Q1 -->
<g id="edge21" class="edge">
<title>Q11&#45;&gt;Q1</title>
<path fill="none" stroke="black" d="M315.11,-27.01C266.03,-28.99 157.77,-33.35 101.9,-35.59"/>
<polygon fill="black" stroke="black" points="101.64,-32.1 91.79,-36 101.92,-39.1 101.64,-32.1"/>
<text text-anchor="middle" x="198.89" y="-35.8" font-family="Times,serif" font-size="14.00">c</text>
</g>
<!-- Q12&#45;&gt;Q0 -->
<g id="edge22" class="edge">
<title>Q12&#45;&gt;Q0</title>
<path fill="none" stroke="black" d="M458.73,-203.69C465.48,-199.86 473.08,-195.94 480.38,-193 485.3,-191.02 490.61,-189.25 495.87,-187.71"/>
<polygon fill="black" stroke="black" points="497.05,-191.02 505.79,-185.03 495.22,-184.26 497.05,-191.02"/>
<text text-anchor="middle" x="483.88" y="-196.8" font-family="Times,serif" font-size="14.00">c</text>
</g>
</g>
</svg>
