<?xml version="1.0" encoding="UTF-8" standalone="no"?>
<!DOCTYPE svg PUBLIC "-//W3C//DTD SVG 1.1//EN"
 "http://www.w3.org/Graphics/SVG/1.1/DTD/svg11.dtd">
<!-- Generated by graphviz version 2.43.0 (0)
 -->
<!-- Title: ε&#45;NFA for R (PKA) Pages: 1 -->
<svg width="689pt" height="338pt"
 viewBox="0.00 0.00 689.07 338.05" xmlns="http://www.w3.org/2000/svg" xmlns:xlink="http://www.w3.org/1999/xlink">
<g id="graph0" class="graph" transform="scale(1 1) rotate(0) translate(4 334.05)">
<title>ε&#45;NFA for R (PKA)</title>
<polygon fill="white" stroke="transparent" points="-4,4 -4,-334.05 685.07,-334.05 685.07,4 -4,4"/>
<!-- start -->
<g id="node1" class="node">
<title>start</title>
<ellipse fill="black" stroke="black" cx="1.8" cy="-22.2" rx="1.8" ry="1.8"/>
</g>
<!-- r0 -->
<g id="node2" class="node">
<title>r0</title>
<ellipse fill="none" stroke="black" cx="62.8" cy="-22.2" rx="18.36" ry="18.36"/>
<ellipse fill="none" stroke="black" cx="62.8" cy="-22.2" rx="22.4" ry="22.4"/>
<text text-anchor="middle" x="62.8" y="-18.5" font-family="Times,serif" font-size="14.00">r0</text>
</g>
<!-- start&#45;&gt;r0 -->
<g id="edge1" class="edge">
<title>start&#45;&gt;r0</title>
<path fill="none" stroke="black" d="M3.82,-22.2C7.21,-22.2 18.49,-22.2 30.21,-22.2"/>
<polygon fill="black" stroke="black" points="30.44,-25.7 40.44,-22.2 30.44,-18.7 30.44,-25.7"/>
</g>
<!-- s0 -->
<g id="node3" class="node">
<title>s0</title>
<ellipse fill="none" stroke="black" cx="146.85" cy="-55.2" rx="18.7" ry="18.7"/>
<text text-anchor="middle" x="146.85" y="-51.5" font-family="Times,serif" font-size="14.00">s0</text>
</g>
<!-- r0&#45;&gt;s0 -->
<g id="edge2" class="edge">
<title>r0&#45;&gt;s0</title>
<path fill="none" stroke="black" d="M83.66,-30.19C94.55,-34.57 108.19,-40.05 119.91,-44.77"/>
<polygon fill="black" stroke="black" points="118.62,-48.02 129.21,-48.51 121.24,-41.53 118.62,-48.02"/>
<text text-anchor="middle" x="106.5" y="-45" font-family="Times,serif" font-size="14.00">ε</text>
</g>
<!-- s1 -->
<g id="node4" class="node">
<title>s1</title>
<ellipse fill="none" stroke="black" cx="227.54" cy="-57.2" rx="18.7" ry="18.7"/>
<text text-anchor="middle" x="227.54" y="-53.5" font-family="Times,serif" font-size="14.00">s1</text>
</g>
<!-- s0&#45;&gt;s1 -->
<g id="edge3" class="edge">
<title>s0&#45;&gt;s1</title>
<path fill="none" stroke="black" d="M165.7,-55.65C175.29,-55.9 187.34,-56.2 198.18,-56.48"/>
<polygon fill="black" stroke="black" points="198.4,-59.98 208.48,-56.74 198.57,-52.99 198.4,-59.98"/>
<text text-anchor="middle" x="187.19" y="-61" font-family="Times,serif" font-size="14.00">b</text>
</g>
<!-- s2 -->
<g id="node5" class="node">
<title>s2</title>
<ellipse fill="none" stroke="black" cx="400.63" cy="-57.2" rx="18.7" ry="18.7"/>
<text text-anchor="middle" x="400.63" y="-53.5" font-family="Times,serif" font-size="14.00">s2</text>
</g>
<!-- s1&#45;&gt;s2 -->
<g id="edge4" class="edge">
<title>s1&#45;&gt;s2</title>
<path fill="none" stroke="black" d="M246.53,-57.2C276.31,-57.2 336.07,-57.2 371.48,-57.2"/>
<polygon fill="black" stroke="black" points="371.63,-60.7 381.63,-57.2 371.63,-53.7 371.63,-60.7"/>
<text text-anchor="middle" x="312.14" y="-61" font-family="Times,serif" font-size="14.00">a</text>
</g>
<!-- m0 -->
<g id="node8" class="node">
<title>m0</title>
<ellipse fill="none" stroke="black" cx="312.14" cy="-147.2" rx="23" ry="23"/>
<text text-anchor="middle" x="312.14" y="-143.5" font-family="Times,serif" font-size="14.00">m0</text>
</g>
<!-- s1&#45;&gt;m0 -->
<g id="edge5" class="edge">
<title>s1&#45;&gt;m0</title>
<path fill="none" stroke="black" d="M241.09,-70.87C253.73,-84.64 273.51,-106.2 288.83,-122.89"/>
<polygon fill="black" stroke="black" points="286.6,-125.64 295.95,-130.64 291.76,-120.91 286.6,-125.64"/>
<text text-anchor="middle" x="267.89" y="-106" font-family="Times,serif" font-size="14.00">ε</text>
</g>
<!-- s3 -->
<g id="node6" class="node">
<title>s3</title>
<ellipse fill="none" stroke="black" cx="487.83" cy="-54.2" rx="18.7" ry="18.7"/>
<text text-anchor="middle" x="487.83" y="-50.5" font-family="Times,serif" font-size="14.00">s3</text>
</g>
<!-- s2&#45;&gt;s3 -->
<g id="edge6" class="edge">
<title>s2&#45;&gt;s3</title>
<path fill="none" stroke="black" d="M419.7,-56.56C431,-56.16 445.78,-55.64 458.6,-55.19"/>
<polygon fill="black" stroke="black" points="458.92,-58.68 468.79,-54.83 458.67,-51.69 458.92,-58.68"/>
<text text-anchor="middle" x="444.88" y="-60" font-family="Times,serif" font-size="14.00">a</text>
</g>
<!-- s4 -->
<g id="node7" class="node">
<title>s4</title>
<ellipse fill="none" stroke="black" cx="573.73" cy="-25.2" rx="18.7" ry="18.7"/>
<text text-anchor="middle" x="573.73" y="-21.5" font-family="Times,serif" font-size="14.00">s4</text>
</g>
<!-- s3&#45;&gt;s4 -->
<g id="edge7" class="edge">
<title>s3&#45;&gt;s4</title>
<path fill="none" stroke="black" d="M505.81,-48.33C517.41,-44.32 533.01,-38.93 546.23,-34.36"/>
<polygon fill="black" stroke="black" points="547.47,-37.63 555.77,-31.06 545.18,-31.02 547.47,-37.63"/>
<text text-anchor="middle" x="530.78" y="-45" font-family="Times,serif" font-size="14.00">c</text>
</g>
<!-- s4&#45;&gt;r0 -->
<g id="edge8" class="edge">
<title>s4&#45;&gt;r0</title>
<path fill="none" stroke="black" d="M555.63,-18.98C538.85,-13.44 512.43,-6.2 488.83,-6.2 145.85,-6.2 145.85,-6.2 145.85,-6.2 128.51,-6.2 109.49,-9.68 94.13,-13.4"/>
<polygon fill="black" stroke="black" points="92.96,-10.08 84.15,-15.97 94.71,-16.86 92.96,-10.08"/>
<text text-anchor="middle" x="312.14" y="-10" font-family="Times,serif" font-size="14.00">ε</text>
</g>
<!-- m0&#45;&gt;s2 -->
<g id="edge11" class="edge">
<title>m0&#45;&gt;s2</title>
<path fill="none" stroke="black" d="M328.56,-130.79C335.9,-123.01 344.82,-113.6 352.89,-105.2 361.64,-96.08 371.4,-86.04 379.72,-77.52"/>
<polygon fill="black" stroke="black" points="382.4,-79.79 386.89,-70.19 377.39,-74.89 382.4,-79.79"/>
<text text-anchor="middle" x="356.39" y="-109" font-family="Times,serif" font-size="14.00">ε</text>
</g>
<!-- m1 -->
<g id="node9" class="node">
<title>m1</title>
<ellipse fill="none" stroke="black" cx="400.63" cy="-133.2" rx="23" ry="23"/>
<text text-anchor="middle" x="400.63" y="-129.5" font-family="Times,serif" font-size="14.00">m1</text>
</g>
<!-- m0&#45;&gt;m1 -->
<g id="edge9" class="edge">
<title>m0&#45;&gt;m1</title>
<path fill="none" stroke="black" d="M335.13,-146.72C342.98,-146.3 351.87,-145.55 359.89,-144.2 362.8,-143.71 365.8,-143.09 368.8,-142.4"/>
<polygon fill="black" stroke="black" points="369.96,-145.71 378.77,-139.84 368.22,-138.93 369.96,-145.71"/>
<text text-anchor="middle" x="356.39" y="-149" font-family="Times,serif" font-size="14.00">a</text>
</g>
<!-- z0 -->
<g id="node10" class="node">
<title>z0</title>
<ellipse fill="none" stroke="black" cx="400.63" cy="-259.2" rx="18.7" ry="18.7"/>
<text text-anchor="middle" x="400.63" y="-255.5" font-family="Times,serif" font-size="14.00">z0</text>
</g>
<!-- m0&#45;&gt;z0 -->
<g id="edge10" class="edge">
<title>m0&#45;&gt;z0</title>
<path fill="none" stroke="black" d="M324.02,-166.61C331.53,-179.42 342.07,-196.33 352.89,-210.2 360.83,-220.38 370.56,-230.85 379.08,-239.48"/>
<polygon fill="black" stroke="black" points="376.63,-241.97 386.19,-246.53 381.56,-237 376.63,-241.97"/>
<text text-anchor="middle" x="356.39" y="-222" font-family="Times,serif" font-size="14.00">c</text>
</g>
<!-- m1&#45;&gt;m0 -->
<g id="edge12" class="edge">
<title>m1&#45;&gt;m0</title>
<path fill="none" stroke="black" d="M379,-125.93C370.8,-124.01 361.34,-123.02 352.89,-125.2 348.68,-126.29 344.44,-127.92 340.37,-129.83"/>
<polygon fill="black" stroke="black" points="338.53,-126.85 331.32,-134.61 341.8,-133.04 338.53,-126.85"/>
<text text-anchor="middle" x="356.39" y="-129" font-family="Times,serif" font-size="14.00">c</text>
</g>
<!-- z1 -->
<g id="node11" class="node">
<title>z1</title>
<ellipse fill="none" stroke="black" cx="487.83" cy="-311.2" rx="18.7" ry="18.7"/>
<text text-anchor="middle" x="487.83" y="-307.5" font-family="Times,serif" font-size="14.00">z1</text>
</g>
<!-- z0&#45;&gt;z1 -->
<g id="edge14" class="edge">
<title>z0&#45;&gt;z1</title>
<path fill="none" stroke="black" d="M417.26,-268.74C429.99,-276.51 448.18,-287.61 462.77,-296.51"/>
<polygon fill="black" stroke="black" points="460.94,-299.5 471.3,-301.72 464.59,-293.52 460.94,-299.5"/>
<text text-anchor="middle" x="444.88" y="-290" font-family="Times,serif" font-size="14.00">b</text>
</g>
<!-- w0 -->
<g id="node13" class="node">
<title>w0</title>
<ellipse fill="none" stroke="black" cx="487.83" cy="-199.2" rx="21.4" ry="21.4"/>
<text text-anchor="middle" x="487.83" y="-195.5" font-family="Times,serif" font-size="14.00">w0</text>
</g>
<!-- z0&#45;&gt;w0 -->
<g id="edge13" class="edge">
<title>z0&#45;&gt;w0</title>
<path fill="none" stroke="black" d="M416.28,-248.34C423.75,-242.85 433.01,-236.11 441.38,-230.2 447.71,-225.73 454.6,-220.98 461.04,-216.58"/>
<polygon fill="black" stroke="black" points="463.17,-219.36 469.48,-210.85 459.24,-213.57 463.17,-219.36"/>
<text text-anchor="middle" x="444.88" y="-234" font-family="Times,serif" font-size="14.00">a</text>
</g>
<!-- z1&#45;&gt;z0 -->
<g id="edge16" class="edge">
<title>z1&#45;&gt;z0</title>
<path fill="none" stroke="black" d="M468.65,-311.73C459.95,-311.28 449.65,-309.66 441.38,-305.2 431.77,-300.01 423.43,-291.5 416.91,-283.2"/>
<polygon fill="black" stroke="black" points="419.73,-281.13 411.01,-275.1 414.07,-285.25 419.73,-281.13"/>
<text text-anchor="middle" x="444.88" y="-311" font-family="Times,serif" font-size="14.00">c</text>
</g>
<!-- z2 -->
<g id="node12" class="node">
<title>z2</title>
<ellipse fill="none" stroke="black" cx="573.73" cy="-280.2" rx="18.7" ry="18.7"/>
<text text-anchor="middle" x="573.73" y="-276.5" font-family="Times,serif" font-size="14.00">z2</text>
</g>
<!-- z1&#45;&gt;z2 -->
<g id="edge15" class="edge">
<title>z1&#45;&gt;z2</title>
<path fill="none" stroke="black" d="M505.81,-304.93C517.41,-300.64 533.01,-294.87 546.23,-289.99"/>
<polygon fill="black" stroke="black" points="547.61,-293.21 555.77,-286.46 545.18,-286.65 547.61,-293.21"/>
<text text-anchor="middle" x="530.78" y="-300" font-family="Times,serif" font-size="14.00">b</text>
</g>
<!-- z2&#45;&gt;z0 -->
<g id="edge17" class="edge">
<title>z2&#45;&gt;z0</title>
<path fill="none" stroke="black" d="M555.03,-276.34C542.35,-273.7 524.83,-270.31 509.28,-268.2 482.41,-264.54 451.56,-262.15 429.79,-260.75"/>
<polygon fill="black" stroke="black" points="429.79,-257.25 419.6,-260.13 429.37,-264.23 429.79,-257.25"/>
<text text-anchor="middle" x="487.83" y="-272" font-family="Times,serif" font-size="14.00">b</text>
</g>
<!-- w0&#45;&gt;m0 -->
<g id="edge19" class="edge">
<title>w0&#45;&gt;m0</title>
<path fill="none" stroke="black" d="M466.58,-194.9C440.11,-189.05 392.45,-177.74 352.89,-164.2 349.52,-163.05 346.03,-161.74 342.59,-160.37"/>
<polygon fill="black" stroke="black" points="343.71,-157.04 333.13,-156.44 341.02,-163.51 343.71,-157.04"/>
<text text-anchor="middle" x="400.63" y="-189" font-family="Times,serif" font-size="14.00">ε</text>
</g>
<!-- w1 -->
<g id="node14" class="node">
<title>w1</title>
<ellipse fill="none" stroke="black" cx="573.73" cy="-156.2" rx="21.4" ry="21.4"/>
<text text-anchor="middle" x="573.73" y="-152.5" font-family="Times,serif" font-size="14.00">w1</text>
</g>
<!-- w0&#45;&gt;w1 -->
<g id="edge18" class="edge">
<title>w0&#45;&gt;w1</title>
<path fill="none" stroke="black" d="M507.45,-189.66C518.53,-183.98 532.79,-176.67 545.16,-170.33"/>
<polygon fill="black" stroke="black" points="546.86,-173.39 554.16,-165.71 543.66,-167.16 546.86,-173.39"/>
<text text-anchor="middle" x="530.78" y="-183" font-family="Times,serif" font-size="14.00">b</text>
</g>
<!-- w2 -->
<g id="node15" class="node">
<title>w2</title>
<ellipse fill="none" stroke="black" cx="659.62" cy="-185.2" rx="21.4" ry="21.4"/>
<text text-anchor="middle" x="659.62" y="-181.5" font-family="Times,serif" font-size="14.00">w2</text>
</g>
<!-- w1&#45;&gt;w2 -->
<g id="edge20" class="edge">
<title>w1&#45;&gt;w2</title>
<path fill="none" stroke="black" d="M594.18,-162.92C604.59,-166.52 617.62,-171.03 629.24,-175.04"/>
<polygon fill="black" stroke="black" points="628.38,-178.45 638.98,-178.41 630.67,-171.83 628.38,-178.45"/>
<text text-anchor="middle" x="616.67" y="-176" font-family="Times,serif" font-size="14.00">c</text>
</g>
<!-- w2&#45;&gt;w0 -->
<g id="edge21" class="edge">
<title>w2&#45;&gt;w0</title>
<path fill="none" stroke="black" d="M638.31,-188.65C632.47,-189.57 626.08,-190.5 620.17,-191.2 582.14,-195.71 572.53,-196.22 534.28,-198.2 529.63,-198.44 524.71,-198.62 519.9,-198.76"/>
<polygon fill="black" stroke="black" points="519.57,-195.27 509.65,-199 519.73,-202.26 519.57,-195.27"/>
<text text-anchor="middle" x="573.73" y="-202" font-family="Times,serif" font-size="14.00">a</text>
</g>
<!-- w2&#45;&gt;w2 -->
<g id="edge22" class="edge">
<title>w2&#45;&gt;w2</title>
<path fill="none" stroke="black" d="M651.98,-205.5C650.92,-215.62 653.47,-224.65 659.62,-224.65 663.56,-224.65 666.03,-220.94 667.01,-215.62"/>
<polygon fill="black" stroke="black" points="670.51,-215.58 667.26,-205.5 663.51,-215.4 670.51,-215.58"/>
<text text-anchor="middle" x="659.62" y="-228.45" font-family="Times,serif" font-size="14.00">c</text>
</g>
</g>
</svg>
